<svg width="37" height="36" viewBox="0 0 37 36" fill="none" xmlns="http://www.w3.org/2000/svg">
<path d="M12.7546 21.7688C17.9578 21.7688 22.1758 17.5672 22.1758 12.3844C22.1758 7.20153 17.9578 3 12.7546 3C7.5514 3 3.33337 7.20153 3.33337 12.3844C3.33337 17.5672 7.5514 21.7688 12.7546 21.7688Z" fill="url(#paint0_linear_1971_74998)"/>
<g filter="url(#filter0_b_1971_74998)">
<path d="M20.9164 33.0006C27.7763 33.0006 33.3374 27.4613 33.3374 20.6282C33.3374 13.7952 27.7763 8.25586 20.9164 8.25586C14.0565 8.25586 8.49548 13.7952 8.49548 20.6282C8.49548 27.4613 14.0565 33.0006 20.9164 33.0006Z" fill="#6AE092" fill-opacity="0.6"/>
</g>
<g filter="url(#filter1_b_1971_74998)">
<path d="M33.2574 20.6282C33.2574 27.4168 27.7324 32.9206 20.9164 32.9206C14.1004 32.9206 8.57548 27.4168 8.57548 20.6282C8.57548 13.8396 14.1004 8.33586 20.9164 8.33586C27.7324 8.33586 33.2574 13.8396 33.2574 20.6282Z" stroke="url(#paint1_linear_1971_74998)" stroke-width="0.16"/>
</g>
<g filter="url(#filter2_b_1971_74998)">
<mask id="path-4-inside-1_1971_74998" fill="white">
<path fill-rule="evenodd" clip-rule="evenodd" d="M21.0001 12.9731C16.8584 12.9731 13.5 16.3241 13.5 20.458C13.5 23.765 15.649 26.5706 18.629 27.5603C19.0038 27.6295 19.1415 27.398 19.1415 27.2003C19.1415 27.1187 19.14 26.9515 19.1381 26.7344L19.1381 26.7341L19.1381 26.7338C19.1359 26.4754 19.133 26.1464 19.1313 25.8068C17.0447 26.2595 16.6045 24.9236 16.6045 24.9236C16.2633 24.0585 15.7717 23.8285 15.7717 23.8285C15.0912 23.3639 15.823 23.3734 15.823 23.3734C16.5761 23.4261 16.9727 24.1449 16.9727 24.1449C17.6416 25.289 18.7273 24.9581 19.1552 24.7669C19.2226 24.2832 19.4169 23.9529 19.6314 23.7661C17.9655 23.5768 16.2144 22.935 16.2144 20.067C16.2144 19.2499 16.5073 18.5822 16.9871 18.058C16.9092 17.8694 16.6525 17.1082 17.0598 16.0772C17.0598 16.0772 17.6896 15.8761 19.1228 16.8445C19.7211 16.6786 20.3627 16.5955 21.0001 16.5926C21.6375 16.5955 22.2796 16.6786 22.879 16.8445C24.3105 15.8761 24.9394 16.0772 24.9394 16.0772C25.3477 17.1082 25.0909 17.8694 25.0129 18.058C25.4938 18.5822 25.7849 19.2499 25.7849 20.067C25.7849 22.9418 24.0303 23.5748 22.3602 23.7601C22.6292 23.9924 22.8689 24.448 22.8689 25.1462C22.8689 25.8156 22.865 26.3976 22.8624 26.7837L22.8624 26.784C22.8612 26.9754 22.8602 27.1185 22.8602 27.2003C22.8602 27.3994 22.9952 27.6328 23.3754 27.5593C26.3538 26.5685 28.5 23.7639 28.5 20.458C28.5 16.3241 25.1421 12.9731 21.0001 12.9731ZM16.3407 23.72C16.3242 23.7574 16.2656 23.7685 16.2121 23.7429C16.1578 23.7185 16.1272 23.6676 16.1448 23.6302C16.161 23.5919 16.2197 23.5813 16.274 23.6068C16.3285 23.6314 16.3596 23.6827 16.3407 23.72ZM16.4915 24.0238C16.5389 24.0762 16.6089 24.0916 16.6446 24.0584C16.682 24.0249 16.6725 23.9555 16.6234 23.9025C16.5742 23.8504 16.5064 23.8348 16.4695 23.8679C16.4332 23.9015 16.4424 23.9715 16.4915 24.0238Z"/>
</mask>
<path fill-rule="evenodd" clip-rule="evenodd" d="M21.0001 12.9731C16.8584 12.9731 13.5 16.3241 13.5 20.458C13.5 23.765 15.649 26.5706 18.629 27.5603C19.0038 27.6295 19.1415 27.398 19.1415 27.2003C19.1415 27.1187 19.14 26.9515 19.1381 26.7344L19.1381 26.7341L19.1381 26.7338C19.1359 26.4754 19.133 26.1464 19.1313 25.8068C17.0447 26.2595 16.6045 24.9236 16.6045 24.9236C16.2633 24.0585 15.7717 23.8285 15.7717 23.8285C15.0912 23.3639 15.823 23.3734 15.823 23.3734C16.5761 23.4261 16.9727 24.1449 16.9727 24.1449C17.6416 25.289 18.7273 24.9581 19.1552 24.7669C19.2226 24.2832 19.4169 23.9529 19.6314 23.7661C17.9655 23.5768 16.2144 22.935 16.2144 20.067C16.2144 19.2499 16.5073 18.5822 16.9871 18.058C16.9092 17.8694 16.6525 17.1082 17.0598 16.0772C17.0598 16.0772 17.6896 15.8761 19.1228 16.8445C19.7211 16.6786 20.3627 16.5955 21.0001 16.5926C21.6375 16.5955 22.2796 16.6786 22.879 16.8445C24.3105 15.8761 24.9394 16.0772 24.9394 16.0772C25.3477 17.1082 25.0909 17.8694 25.0129 18.058C25.4938 18.5822 25.7849 19.2499 25.7849 20.067C25.7849 22.9418 24.0303 23.5748 22.3602 23.7601C22.6292 23.9924 22.8689 24.448 22.8689 25.1462C22.8689 25.8156 22.865 26.3976 22.8624 26.7837L22.8624 26.784C22.8612 26.9754 22.8602 27.1185 22.8602 27.2003C22.8602 27.3994 22.9952 27.6328 23.3754 27.5593C26.3538 26.5685 28.5 23.7639 28.5 20.458C28.5 16.3241 25.1421 12.9731 21.0001 12.9731ZM16.3407 23.72C16.3242 23.7574 16.2656 23.7685 16.2121 23.7429C16.1578 23.7185 16.1272 23.6676 16.1448 23.6302C16.161 23.5919 16.2197 23.5813 16.274 23.6068C16.3285 23.6314 16.3596 23.6827 16.3407 23.72ZM16.4915 24.0238C16.5389 24.0762 16.6089 24.0916 16.6446 24.0584C16.682 24.0249 16.6725 23.9555 16.6234 23.9025C16.5742 23.8504 16.5064 23.8348 16.4695 23.8679C16.4332 23.9015 16.4424 23.9715 16.4915 24.0238Z" fill="url(#paint2_linear_1971_74998)" fill-opacity="0.9"/>
<path d="M18.629 27.5603L18.6238 27.5759L18.6261 27.5763L18.629 27.5603ZM19.1381 26.7344L19.1544 26.7342L19.1544 26.7342L19.1381 26.7344ZM19.1381 26.7341L19.1218 26.7343L19.1218 26.7343L19.1381 26.7341ZM19.1381 26.7338L19.1218 26.734V26.734L19.1381 26.7338ZM19.1313 25.8068L19.1476 25.8067L19.1475 25.7866L19.1278 25.7909L19.1313 25.8068ZM16.6045 24.9236L16.62 24.9185L16.6196 24.9176L16.6045 24.9236ZM15.7717 23.8285L15.7624 23.8421L15.7648 23.8432L15.7717 23.8285ZM15.823 23.3734L15.8241 23.3572L15.8232 23.3572L15.823 23.3734ZM16.9727 24.1449L16.9584 24.1528L16.9586 24.1531L16.9727 24.1449ZM19.1552 24.7669L19.1619 24.7818L19.1701 24.7781L19.1714 24.7692L19.1552 24.7669ZM19.6314 23.7661L19.6421 23.7784L19.67 23.7541L19.6333 23.7499L19.6314 23.7661ZM16.9871 18.058L16.9991 18.069L17.0061 18.0614L17.0022 18.0518L16.9871 18.058ZM17.0598 16.0772L17.0519 16.0527L17.0446 16.0713L17.0598 16.0772ZM19.1228 16.8445L19.1088 16.8653L19.1272 16.8602L19.1228 16.8445ZM21.0001 16.5926L21.0002 16.5763L21 16.5763L21.0001 16.5926ZM22.879 16.8445L22.8723 16.8687L22.8881 16.858L22.879 16.8445ZM24.9394 16.0772L24.9633 16.0678L24.9443 16.0617L24.9394 16.0772ZM25.0129 18.058L24.9979 18.0518L24.9939 18.0614L25.0009 18.069L25.0129 18.058ZM22.3602 23.7601L22.3584 23.7439L22.3213 23.7481L22.3495 23.7725L22.3602 23.7601ZM22.8624 26.7837L22.8787 26.7838V26.7838L22.8624 26.7837ZM22.8624 26.784L22.8461 26.7838V26.7838L22.8624 26.784ZM23.3754 27.5593L23.3785 27.5754L23.3805 27.5747L23.3754 27.5593ZM16.2121 23.7429L16.2192 23.7282L16.2188 23.728L16.2121 23.7429ZM16.3407 23.72L16.3261 23.7126L16.3258 23.7134L16.3407 23.72ZM16.1448 23.6302L16.1596 23.6372L16.1598 23.6366L16.1448 23.6302ZM16.274 23.6068L16.2671 23.6215L16.2673 23.6216L16.274 23.6068ZM16.6446 24.0584L16.6338 24.0463L16.6335 24.0465L16.6446 24.0584ZM16.4915 24.0238L16.5036 24.0128L16.5034 24.0126L16.4915 24.0238ZM16.6234 23.9025L16.6353 23.8914L16.6352 23.8913L16.6234 23.9025ZM16.4695 23.8679L16.4587 23.8557L16.4584 23.8559L16.4695 23.8679ZM13.5163 20.458C13.5163 16.3332 16.8674 12.9894 21.0001 12.9894V12.9569C16.8495 12.9569 13.4837 16.3151 13.4837 20.458H13.5163ZM18.6342 27.5448C15.6606 26.5573 13.5163 23.7578 13.5163 20.458H13.4837C13.4837 23.7722 15.6374 26.584 18.6239 27.5758L18.6342 27.5448ZM19.1252 27.2003C19.1252 27.2957 19.0919 27.3982 19.0148 27.4683C18.9382 27.5381 18.8157 27.5782 18.632 27.5443L18.6261 27.5763C18.8172 27.6116 18.9509 27.5706 19.0368 27.4924C19.1222 27.4147 19.1577 27.3025 19.1577 27.2003H19.1252ZM19.1218 26.7345C19.1237 26.9517 19.1252 27.1188 19.1252 27.2003H19.1577C19.1577 27.1187 19.1563 26.9514 19.1544 26.7342L19.1218 26.7345ZM19.1218 26.7343L19.1218 26.7346L19.1544 26.7342L19.1544 26.7339L19.1218 26.7343ZM19.1218 26.734L19.1218 26.7343L19.1544 26.734L19.1544 26.7337L19.1218 26.734ZM19.115 25.8069C19.1167 26.1465 19.1196 26.4756 19.1218 26.734L19.1544 26.7337C19.1522 26.4753 19.1493 26.1463 19.1476 25.8067L19.115 25.8069ZM16.6045 24.9236C16.589 24.9287 16.589 24.9287 16.589 24.9287C16.589 24.9287 16.589 24.9288 16.589 24.9288C16.589 24.9288 16.5891 24.9289 16.5891 24.929C16.5892 24.9292 16.5893 24.9295 16.5894 24.9298C16.5896 24.9305 16.59 24.9315 16.5904 24.9329C16.5914 24.9355 16.5928 24.9394 16.5947 24.9443C16.5986 24.9543 16.6044 24.9687 16.6126 24.9868C16.629 25.023 16.6547 25.0741 16.692 25.1339C16.7668 25.2534 16.8883 25.4079 17.0757 25.548C17.4509 25.8286 18.0876 26.0499 19.1347 25.8227L19.1278 25.7909C18.0884 26.0164 17.4617 25.796 17.0952 25.5219C16.9116 25.3846 16.7927 25.2334 16.7197 25.1166C16.6832 25.0582 16.6581 25.0084 16.6423 24.9734C16.6344 24.9559 16.6287 24.942 16.6251 24.9326C16.6233 24.9279 16.622 24.9243 16.6211 24.9219C16.6207 24.9207 16.6204 24.9198 16.6202 24.9193C16.6201 24.919 16.62 24.9188 16.62 24.9186C16.62 24.9186 16.6199 24.9185 16.6199 24.9185C16.6199 24.9185 16.6199 24.9185 16.6199 24.9185C16.6199 24.9185 16.6199 24.9185 16.6045 24.9236ZM15.7717 23.8285C15.7648 23.8432 15.7648 23.8432 15.7648 23.8432C15.7648 23.8432 15.7648 23.8432 15.7648 23.8432C15.7648 23.8432 15.7648 23.8432 15.7648 23.8432C15.7649 23.8433 15.7649 23.8433 15.765 23.8433C15.7652 23.8434 15.7655 23.8436 15.766 23.8438C15.7668 23.8442 15.7681 23.8448 15.7699 23.8457C15.7734 23.8475 15.7786 23.8503 15.7855 23.8542C15.7992 23.862 15.8194 23.8741 15.8447 23.8914C15.8953 23.9259 15.9666 23.9811 16.0486 24.0631C16.2126 24.2272 16.4195 24.4991 16.5893 24.9296L16.6196 24.9176C16.4482 24.483 16.2388 24.2073 16.0717 24.0401C15.9881 23.9565 15.9152 23.9001 15.863 23.8645C15.8369 23.8467 15.816 23.8341 15.8015 23.8259C15.7943 23.8218 15.7886 23.8188 15.7848 23.8168C15.7828 23.8158 15.7813 23.815 15.7803 23.8145C15.7798 23.8143 15.7794 23.8141 15.7791 23.814C15.779 23.8139 15.7789 23.8138 15.7788 23.8138C15.7787 23.8138 15.7787 23.8138 15.7787 23.8137C15.7787 23.8137 15.7786 23.8137 15.7786 23.8137C15.7786 23.8137 15.7786 23.8137 15.7717 23.8285ZM15.823 23.3734C15.8232 23.3572 15.8232 23.3572 15.8232 23.3572C15.8232 23.3572 15.8232 23.3572 15.8232 23.3572C15.8231 23.3572 15.8231 23.3572 15.823 23.3571C15.8229 23.3571 15.8228 23.3571 15.8226 23.3571C15.8222 23.3571 15.8217 23.3571 15.821 23.3571C15.8196 23.3571 15.8175 23.3571 15.8148 23.3572C15.8095 23.3572 15.8018 23.3573 15.7923 23.3577C15.7733 23.3583 15.747 23.3598 15.7175 23.363C15.6592 23.3694 15.5861 23.383 15.5341 23.4126C15.5079 23.4275 15.4855 23.4473 15.474 23.4738C15.4622 23.5009 15.4627 23.5323 15.4776 23.5677C15.5067 23.6369 15.5923 23.7257 15.7625 23.8419L15.7809 23.815C15.6109 23.699 15.5327 23.6147 15.5077 23.5551C15.4955 23.526 15.4963 23.5041 15.5038 23.4869C15.5116 23.4691 15.5275 23.4538 15.5502 23.4409C15.5961 23.4148 15.6635 23.4017 15.7211 23.3954C15.7496 23.3923 15.7751 23.3908 15.7935 23.3902C15.8026 23.3899 15.81 23.3898 15.8151 23.3897C15.8176 23.3897 15.8196 23.3897 15.8209 23.3897C15.8215 23.3897 15.822 23.3897 15.8223 23.3897C15.8225 23.3897 15.8226 23.3897 15.8227 23.3897C15.8227 23.3897 15.8228 23.3897 15.8228 23.3897C15.8228 23.3897 15.8228 23.3897 15.8228 23.3897C15.8228 23.3897 15.8228 23.3897 15.823 23.3734ZM16.9727 24.1449C16.987 24.137 16.987 24.137 16.987 24.137C16.987 24.137 16.9869 24.137 16.9869 24.137C16.9869 24.137 16.9869 24.1369 16.9869 24.1369C16.9868 24.1368 16.9867 24.1366 16.9866 24.1364C16.9864 24.1361 16.9861 24.1355 16.9857 24.1348C16.9849 24.1334 16.9837 24.1313 16.9821 24.1286C16.979 24.1232 16.9743 24.1153 16.968 24.1053C16.9555 24.0853 16.9369 24.0567 16.9122 24.0223C16.8628 23.9534 16.7891 23.8612 16.6916 23.7672C16.4967 23.5793 16.2059 23.3839 15.8241 23.3572L15.8219 23.3897C16.1933 23.4156 16.4773 23.6059 16.669 23.7906C16.7648 23.8829 16.8372 23.9737 16.8857 24.0413C16.91 24.0751 16.9282 24.103 16.9404 24.1225C16.9464 24.1323 16.951 24.1399 16.954 24.145C16.9555 24.1476 16.9566 24.1496 16.9574 24.1509C16.9578 24.1515 16.958 24.152 16.9582 24.1523C16.9583 24.1525 16.9584 24.1526 16.9584 24.1527C16.9584 24.1527 16.9584 24.1527 16.9584 24.1528C16.9584 24.1528 16.9584 24.1528 16.9584 24.1528C16.9584 24.1528 16.9584 24.1528 16.9727 24.1449ZM19.1486 24.7521C18.9357 24.8472 18.5603 24.9765 18.1558 24.9404C17.7524 24.9045 17.3185 24.7041 16.9868 24.1367L16.9586 24.1531C17.2958 24.7298 17.7393 24.936 18.1529 24.9729C18.5654 25.0096 18.9468 24.8779 19.1619 24.7818L19.1486 24.7521ZM19.6207 23.7538C19.4028 23.9436 19.2069 24.2778 19.1391 24.7647L19.1714 24.7692C19.2383 24.2886 19.4311 23.9621 19.6421 23.7784L19.6207 23.7538ZM16.1981 20.067C16.1981 21.5046 16.6371 22.3871 17.2877 22.9336C17.9375 23.4793 18.7957 23.6875 19.6296 23.7823L19.6333 23.7499C18.8013 23.6554 17.951 23.4481 17.3087 22.9086C16.6672 22.3698 16.2306 21.4975 16.2306 20.067H16.1981ZM16.9751 18.047C16.4927 18.574 16.1981 19.2456 16.1981 20.067H16.2306C16.2306 19.2541 16.522 18.5903 16.9991 18.069L16.9751 18.047ZM17.0446 16.0713C16.6354 17.1074 16.8932 17.8731 16.9721 18.0642L17.0022 18.0518C16.9253 17.8657 16.6697 17.1091 17.0749 16.0832L17.0446 16.0713ZM19.1319 16.831C18.414 16.3459 17.8963 16.1531 17.5572 16.0818C17.3876 16.0461 17.2627 16.0409 17.1798 16.0447C17.1384 16.0466 17.1075 16.0507 17.0867 16.0545C17.0764 16.0563 17.0686 16.0581 17.0633 16.0594C17.0606 16.0601 17.0586 16.0606 17.0572 16.061C17.0565 16.0612 17.0559 16.0614 17.0555 16.0615C17.0553 16.0616 17.0552 16.0616 17.0551 16.0617C17.055 16.0617 17.0549 16.0617 17.0549 16.0617C17.0549 16.0617 17.0549 16.0617 17.0549 16.0617C17.0548 16.0617 17.0548 16.0617 17.0598 16.0772C17.0647 16.0928 17.0647 16.0928 17.0647 16.0928C17.0647 16.0928 17.0647 16.0928 17.0647 16.0928C17.0647 16.0928 17.0647 16.0928 17.0647 16.0928C17.0648 16.0928 17.0648 16.0927 17.0649 16.0927C17.0652 16.0926 17.0655 16.0925 17.0661 16.0924C17.0671 16.0921 17.0688 16.0916 17.0711 16.091C17.0758 16.0899 17.0829 16.0883 17.0925 16.0865C17.1118 16.083 17.1413 16.079 17.1813 16.0772C17.2613 16.0735 17.3835 16.0785 17.5505 16.1136C17.8846 16.1839 18.3984 16.3747 19.1137 16.858L19.1319 16.831ZM21 16.5763C20.3613 16.5792 19.7182 16.6625 19.1185 16.8288L19.1272 16.8602C19.7239 16.6947 20.3641 16.6117 21.0002 16.6089L21 16.5763ZM22.8833 16.8288C22.2824 16.6625 21.6389 16.5792 21.0002 16.5763L21 16.6089C21.6361 16.6117 22.2767 16.6947 22.8746 16.8602L22.8833 16.8288ZM24.9394 16.0772C24.9443 16.0617 24.9443 16.0617 24.9443 16.0617C24.9443 16.0617 24.9443 16.0617 24.9442 16.0617C24.9442 16.0617 24.9442 16.0617 24.9441 16.0617C24.944 16.0616 24.9438 16.0616 24.9436 16.0615C24.9432 16.0614 24.9427 16.0612 24.942 16.061C24.9406 16.0606 24.9386 16.0601 24.9359 16.0594C24.9306 16.0581 24.9228 16.0563 24.9124 16.0545C24.8917 16.0507 24.8609 16.0466 24.8195 16.0447C24.7367 16.0409 24.612 16.0461 24.4426 16.0818C24.104 16.1531 23.5869 16.3459 22.8698 16.831L22.8881 16.858C23.6025 16.3746 24.1157 16.1839 24.4493 16.1136C24.6162 16.0785 24.7381 16.0736 24.818 16.0772C24.8579 16.079 24.8874 16.083 24.9067 16.0865C24.9163 16.0883 24.9234 16.0899 24.928 16.091C24.9303 16.0916 24.932 16.0921 24.9331 16.0924C24.9336 16.0925 24.934 16.0926 24.9342 16.0927C24.9343 16.0927 24.9344 16.0927 24.9344 16.0928C24.9344 16.0928 24.9344 16.0928 24.9344 16.0928C24.9344 16.0928 24.9344 16.0928 24.9344 16.0928C24.9344 16.0928 24.9344 16.0928 24.9394 16.0772ZM25.028 18.0642C25.1069 17.8731 25.3649 17.1073 24.9545 16.0712L24.9242 16.0832C25.3305 17.1091 25.0748 17.8657 24.9979 18.0518L25.028 18.0642ZM25.8011 20.067C25.8011 19.2456 25.5084 18.5741 25.0249 18.047L25.0009 18.069C25.4791 18.5903 25.7686 19.2541 25.7686 20.067H25.8011ZM22.362 23.7763C23.198 23.6836 24.0581 23.4785 24.7093 22.9346C25.3612 22.3901 25.8011 21.508 25.8011 20.067H25.7686C25.7686 21.5009 25.3312 22.3727 24.6884 22.9096C24.0447 23.4473 23.1925 23.6514 22.3584 23.7439L22.362 23.7763ZM22.8852 25.1462C22.8852 24.4443 22.6442 23.9838 22.3708 23.7478L22.3495 23.7725C22.6142 24.001 22.8526 24.4516 22.8526 25.1462H22.8852ZM22.8787 26.7838C22.8813 26.3977 22.8852 25.8157 22.8852 25.1462H22.8526C22.8526 25.8155 22.8487 26.3975 22.8462 26.7835L22.8787 26.7838ZM22.8787 26.7841L22.8787 26.7838L22.8462 26.7835L22.8461 26.7838L22.8787 26.7841ZM22.8765 27.2003C22.8765 27.1186 22.8774 26.9755 22.8787 26.7841L22.8461 26.7838C22.8449 26.9752 22.8439 27.1185 22.8439 27.2003H22.8765ZM23.3723 27.5433C23.1858 27.5793 23.0627 27.5397 22.9862 27.47C22.9092 27.3998 22.8765 27.2965 22.8765 27.2003H22.8439C22.8439 27.3031 22.8788 27.4161 22.9643 27.4941C23.0503 27.5724 23.1847 27.6127 23.3785 27.5753L23.3723 27.5433ZM28.4837 20.458C28.4837 23.7566 26.3422 26.5552 23.3702 27.5438L23.3805 27.5747C26.3654 26.5818 28.5163 23.7711 28.5163 20.458H28.4837ZM21.0001 12.9894C25.1331 12.9894 28.4837 16.3332 28.4837 20.458H28.5163C28.5163 16.3151 25.151 12.9569 21.0001 12.9569V12.9894ZM16.2051 23.7575C16.2346 23.7717 16.2661 23.776 16.2932 23.7711C16.3201 23.7662 16.3445 23.7517 16.3556 23.7266L16.3258 23.7134C16.3204 23.7257 16.3072 23.7354 16.2874 23.739C16.2676 23.7426 16.2431 23.7396 16.2192 23.7282L16.2051 23.7575ZM16.1301 23.6233C16.1183 23.6483 16.1234 23.6763 16.1375 23.6998C16.1517 23.7234 16.1756 23.7443 16.2055 23.7577L16.2188 23.728C16.1943 23.717 16.1758 23.7003 16.1655 23.6831C16.1551 23.6658 16.1537 23.6496 16.1596 23.6372L16.1301 23.6233ZM16.2809 23.592C16.2511 23.578 16.2194 23.5736 16.1922 23.5785C16.1651 23.5835 16.1406 23.5982 16.1298 23.6239L16.1598 23.6366C16.1652 23.624 16.1782 23.6142 16.198 23.6106C16.2178 23.607 16.2426 23.61 16.2671 23.6215L16.2809 23.592ZM16.3552 23.7273C16.3679 23.7022 16.363 23.674 16.3489 23.6503C16.3347 23.6265 16.3106 23.6054 16.2807 23.5919L16.2673 23.6216C16.2919 23.6327 16.3106 23.6496 16.3209 23.6669C16.3312 23.6843 16.3323 23.7004 16.3262 23.7126L16.3552 23.7273ZM16.6335 24.0465C16.6208 24.0583 16.6005 24.0628 16.576 24.0573C16.5517 24.0519 16.5253 24.0368 16.5036 24.0128L16.4794 24.0347C16.5052 24.0632 16.5374 24.082 16.5689 24.0891C16.6002 24.0961 16.6327 24.0917 16.6557 24.0703L16.6335 24.0465ZM16.6114 23.9136C16.634 23.938 16.647 23.9655 16.6503 23.9899C16.6536 24.0144 16.6474 24.0341 16.6338 24.0463L16.6555 24.0705C16.6793 24.0492 16.6869 24.0175 16.6826 23.9855C16.6782 23.9536 16.6618 23.92 16.6353 23.8914L16.6114 23.9136ZM16.4804 23.88C16.4938 23.868 16.5141 23.8637 16.5382 23.8691C16.5624 23.8746 16.5889 23.8896 16.6115 23.9137L16.6352 23.8913C16.6088 23.8632 16.5767 23.8444 16.5454 23.8374C16.5142 23.8303 16.4821 23.8347 16.4587 23.8557L16.4804 23.88ZM16.5034 24.0126C16.4809 23.9887 16.468 23.9611 16.4646 23.9366C16.4613 23.912 16.4674 23.892 16.4806 23.8798L16.4584 23.8559C16.4353 23.8773 16.428 23.9092 16.4324 23.9411C16.4368 23.973 16.4531 24.0066 16.4796 24.0349L16.5034 24.0126Z" fill="url(#paint3_linear_1971_74998)" mask="url(#path-4-inside-1_1971_74998)"/>
</g>
<defs>
<filter id="filter0_b_1971_74998" x="6.81548" y="6.57586" width="28.2019" height="28.1046" filterUnits="userSpaceOnUse" color-interpolation-filters="sRGB">
<feFlood flood-opacity="0" result="BackgroundImageFix"/>
<feGaussianBlur in="BackgroundImageFix" stdDeviation="0.84"/>
<feComposite in2="SourceAlpha" operator="in" result="effect1_backgroundBlur_1971_74998"/>
<feBlend mode="normal" in="SourceGraphic" in2="effect1_backgroundBlur_1971_74998" result="shape"/>
</filter>
<filter id="filter1_b_1971_74998" x="5.81067" y="5.57104" width="30.2115" height="30.1143" filterUnits="userSpaceOnUse" color-interpolation-filters="sRGB">
<feFlood flood-opacity="0" result="BackgroundImageFix"/>
<feGaussianBlur in="BackgroundImageFix" stdDeviation="1.34241"/>
<feComposite in2="SourceAlpha" operator="in" result="effect1_backgroundBlur_1971_74998"/>
<feBlend mode="normal" in="SourceGraphic" in2="effect1_backgroundBlur_1971_74998" result="shape"/>
</filter>
<filter id="filter2_b_1971_74998" x="13.0573" y="12.5305" width="15.8854" height="15.4855" filterUnits="userSpaceOnUse" color-interpolation-filters="sRGB">
<feFlood flood-opacity="0" result="BackgroundImageFix"/>
<feGaussianBlur in="BackgroundImageFix" stdDeviation="0.221346"/>
<feComposite in2="SourceAlpha" operator="in" result="effect1_backgroundBlur_1971_74998"/>
<feBlend mode="normal" in="SourceGraphic" in2="effect1_backgroundBlur_1971_74998" result="shape"/>
</filter>
<linearGradient id="paint0_linear_1971_74998" x1="2.75771" y1="-0.615678" x2="27.3682" y2="9.51061" gradientUnits="userSpaceOnUse">
<stop stop-color="#6CDF95"/>
<stop offset="1" stop-color="#2C8C4F"/>
</linearGradient>
<linearGradient id="paint1_linear_1971_74998" x1="10.8334" y1="11.25" x2="27.3334" y2="33.75" gradientUnits="userSpaceOnUse">
<stop stop-color="#D7E8DC"/>
<stop offset="1" stop-color="#E9E9E9" stop-opacity="0.26"/>
</linearGradient>
<linearGradient id="paint2_linear_1971_74998" x1="34.0893" y1="33.3734" x2="11.8547" y2="26.6314" gradientUnits="userSpaceOnUse">
<stop stop-color="white" stop-opacity="0.57"/>
<stop offset="0.979167" stop-color="white"/>
</linearGradient>
<linearGradient id="paint3_linear_1971_74998" x1="32.2755" y1="21.0731" x2="11.0293" y2="21.0731" gradientUnits="userSpaceOnUse">
<stop stop-color="white" stop-opacity="0"/>
<stop offset="1" stop-color="white"/>
</linearGradient>
</defs>
</svg>
