<svg width="37" height="36" viewBox="0 0 37 36" fill="none" xmlns="http://www.w3.org/2000/svg">
<path fill-rule="evenodd" clip-rule="evenodd" d="M20.7264 12.0398C20.7264 13.3689 21.2305 14.565 22.1735 15.4788C23.1165 16.3925 24.2709 16.8743 25.6042 16.8743C26.9374 16.8743 28.1243 16.3925 29.0348 15.4954C29.9779 14.565 30.4982 13.3689 30.4982 12.0398C30.4982 10.7107 29.9779 9.5145 29.0511 8.61736C27.1813 6.74002 24.0108 6.75663 22.1898 8.58413C21.2305 9.5145 20.7264 10.7107 20.7264 12.0398ZM32.4168 27.4903C33.2948 26.6762 33.7501 25.5465 33.7501 24.2174C33.7501 24.0588 33.7427 23.9002 33.7349 23.7344C33.7264 23.5528 33.7175 23.3625 33.7175 23.1541C33.7112 23.102 33.7048 23.0485 33.6983 22.9941C33.6716 22.771 33.6429 22.5306 33.6037 22.2902L33.5712 22.0742C33.5062 21.6589 33.3924 21.2435 33.2785 20.878C33.116 20.4129 32.9371 19.9975 32.7257 19.6486C32.4493 19.1668 32.1567 18.7847 31.799 18.4524C31.3275 18.0039 30.8397 17.7048 30.3356 17.5221C29.7828 17.3061 29.1975 17.2064 28.5797 17.2064C27.8968 17.2064 27.409 17.4722 27.0025 17.7381L26.4009 18.1036C26.3946 18.1075 26.3881 18.1115 26.3815 18.1156C26.3038 18.1637 26.2068 18.2238 26.027 18.2697C25.7506 18.3694 25.4904 18.3694 25.2303 18.2863C25.151 18.2574 25.0835 18.2284 25.0293 18.203C25.0188 18.1981 25.045 18.2103 24.9562 18.1638C24.8674 18.1172 24.8181 18.0884 24.7194 18.0307L24.3035 17.7879C23.9296 17.5055 23.393 17.2064 22.6614 17.2064C22.0435 17.2064 21.4419 17.3061 20.8891 17.5387C20.3363 17.7547 19.8648 18.0537 19.4258 18.4691C19.0681 18.8346 18.7592 19.2167 18.5153 19.6652C18.3364 19.9975 18.1251 20.4129 17.9625 20.8946C17.8487 21.2435 17.7511 21.6589 17.6698 22.0742C17.5885 22.4729 17.5235 22.8717 17.5235 23.1541C17.491 23.503 17.491 23.8519 17.491 24.2174C17.491 25.5465 17.9625 26.6762 18.8242 27.4736C19.6534 28.2545 20.759 28.6698 22.011 28.6698H29.2138C30.4657 28.6698 31.5713 28.2711 32.4168 27.4903Z" fill="url(#paint0_linear_1971_75052)"/>
<g filter="url(#filter0_b_1971_75052)">
<mask id="path-2-inside-1_1971_75052" fill="white">
<path fill-rule="evenodd" clip-rule="evenodd" d="M7.59494 10.9877C7.59494 12.5672 8.1939 13.9886 9.31455 15.0745C10.4352 16.1603 11.807 16.7329 13.3914 16.7329C14.9757 16.7329 16.3862 16.1603 17.4682 15.0942C18.5888 13.9886 19.2071 12.5672 19.2071 10.9877C19.2071 9.40833 18.5888 7.98685 17.4875 6.92074C15.2656 4.68981 11.4979 4.70955 9.33387 6.88125C8.19391 7.98685 7.59494 9.40833 7.59494 10.9877ZM21.4871 29.3483C22.5304 28.3809 23.0714 27.0384 23.0714 25.4589C23.0714 25.2705 23.0626 25.0821 23.0534 24.8851C23.0434 24.6692 23.0328 24.4431 23.0328 24.1954C23.0252 24.1334 23.0176 24.07 23.0099 24.0053C22.9782 23.7401 22.9441 23.4544 22.8975 23.1688L22.8589 22.9121C22.7816 22.4186 22.6464 21.925 22.5111 21.4907C22.3179 20.9379 22.1054 20.4443 21.8542 20.0297C21.5257 19.4571 21.1779 19.0031 20.7529 18.6082C20.1925 18.0752 19.6129 17.7198 19.0139 17.5026C18.357 17.246 17.6614 17.1275 16.9272 17.1275C16.1157 17.1275 15.5361 17.4434 15.053 17.7593L14.3381 18.1936C14.3306 18.1982 14.3229 18.203 14.3151 18.2079C14.2227 18.2651 14.1075 18.3364 13.8938 18.391C13.5653 18.5095 13.2561 18.5095 12.947 18.4108C12.7929 18.3546 12.6764 18.2983 12.6047 18.2603C12.6025 18.2591 12.6013 18.2585 12.5797 18.2465C12.5582 18.2345 12.5187 18.2114 12.4396 18.1653L11.8457 17.8185C11.4013 17.4829 10.7637 17.1275 9.89422 17.1275C9.16 17.1275 8.44511 17.246 7.78818 17.5224C7.13125 17.779 6.57093 18.1344 6.04925 18.628C5.62418 19.0623 5.25707 19.5164 4.96725 20.0494C4.75471 20.4443 4.50354 20.9379 4.31032 21.5104C4.17507 21.925 4.05914 22.4186 3.96254 22.9121C3.86593 23.386 3.78864 23.8598 3.78864 24.1954C3.75 24.61 3.75 25.0246 3.75 25.4589C3.75 27.0384 4.31032 28.3809 5.33436 29.3285C6.31975 30.2564 7.63361 30.75 9.12136 30.75H17.6808C19.1685 30.75 20.4824 30.2762 21.4871 29.3483Z"/>
</mask>
<path fill-rule="evenodd" clip-rule="evenodd" d="M7.59494 10.9877C7.59494 12.5672 8.1939 13.9886 9.31455 15.0745C10.4352 16.1603 11.807 16.7329 13.3914 16.7329C14.9757 16.7329 16.3862 16.1603 17.4682 15.0942C18.5888 13.9886 19.2071 12.5672 19.2071 10.9877C19.2071 9.40833 18.5888 7.98685 17.4875 6.92074C15.2656 4.68981 11.4979 4.70955 9.33387 6.88125C8.19391 7.98685 7.59494 9.40833 7.59494 10.9877ZM21.4871 29.3483C22.5304 28.3809 23.0714 27.0384 23.0714 25.4589C23.0714 25.2705 23.0626 25.0821 23.0534 24.8851C23.0434 24.6692 23.0328 24.4431 23.0328 24.1954C23.0252 24.1334 23.0176 24.07 23.0099 24.0053C22.9782 23.7401 22.9441 23.4544 22.8975 23.1688L22.8589 22.9121C22.7816 22.4186 22.6464 21.925 22.5111 21.4907C22.3179 20.9379 22.1054 20.4443 21.8542 20.0297C21.5257 19.4571 21.1779 19.0031 20.7529 18.6082C20.1925 18.0752 19.6129 17.7198 19.0139 17.5026C18.357 17.246 17.6614 17.1275 16.9272 17.1275C16.1157 17.1275 15.5361 17.4434 15.053 17.7593L14.3381 18.1936C14.3306 18.1982 14.3229 18.203 14.3151 18.2079C14.2227 18.2651 14.1075 18.3364 13.8938 18.391C13.5653 18.5095 13.2561 18.5095 12.947 18.4108C12.7929 18.3546 12.6764 18.2983 12.6047 18.2603C12.6025 18.2591 12.6013 18.2585 12.5797 18.2465C12.5582 18.2345 12.5187 18.2114 12.4396 18.1653L11.8457 17.8185C11.4013 17.4829 10.7637 17.1275 9.89422 17.1275C9.16 17.1275 8.44511 17.246 7.78818 17.5224C7.13125 17.779 6.57093 18.1344 6.04925 18.628C5.62418 19.0623 5.25707 19.5164 4.96725 20.0494C4.75471 20.4443 4.50354 20.9379 4.31032 21.5104C4.17507 21.925 4.05914 22.4186 3.96254 22.9121C3.86593 23.386 3.78864 23.8598 3.78864 24.1954C3.75 24.61 3.75 25.0246 3.75 25.4589C3.75 27.0384 4.31032 28.3809 5.33436 29.3285C6.31975 30.2564 7.63361 30.75 9.12136 30.75H17.6808C19.1685 30.75 20.4824 30.2762 21.4871 29.3483Z" fill="#FB9EA6" fill-opacity="0.6"/>
<path d="M9.31455 15.0745L9.4043 14.9819L9.31455 15.0745ZM17.4682 15.0942L17.5587 15.1861L17.5588 15.1861L17.4682 15.0942ZM17.4875 6.92074L17.3961 7.01177L17.3978 7.01341L17.4875 6.92074ZM9.33387 6.88125L9.42368 6.97385L9.42523 6.97229L9.33387 6.88125ZM21.4871 29.3483L21.5746 29.443L21.5748 29.4429L21.4871 29.3483ZM23.0534 24.8851L23.1823 24.879L23.0534 24.8851ZM23.0328 24.1954H23.1618V24.1876L23.1608 24.1798L23.0328 24.1954ZM23.0099 24.0053L22.8818 24.0206V24.0206L23.0099 24.0053ZM22.8975 23.1688L22.77 23.188L22.7703 23.1896L22.8975 23.1688ZM22.8589 22.9121L22.9864 22.8929L22.9863 22.8922L22.8589 22.9121ZM22.5111 21.4907L22.6343 21.4523L22.6329 21.4481L22.5111 21.4907ZM21.8542 20.0297L21.7423 20.0939L21.7439 20.0965L21.8542 20.0297ZM20.7529 18.6082L20.664 18.7017L20.6651 18.7027L20.7529 18.6082ZM19.0139 17.5026L18.967 17.6228L18.97 17.6239L19.0139 17.5026ZM15.053 17.7593L15.12 17.8696L15.1236 17.8672L15.053 17.7593ZM14.3381 18.1936L14.2712 18.0834L14.2707 18.0837L14.3381 18.1936ZM14.3151 18.2079L14.2471 18.0982L14.2471 18.0982L14.3151 18.2079ZM13.8938 18.391L13.8617 18.2655L13.85 18.2697L13.8938 18.391ZM12.947 18.4108L12.9027 18.532L12.9078 18.5336L12.947 18.4108ZM11.8457 17.8185L11.768 17.9214L11.774 17.926L11.7806 17.9299L11.8457 17.8185ZM7.78818 17.5224L7.83513 17.6425L7.8382 17.6412L7.78818 17.5224ZM6.04925 18.628L5.96054 18.5342L5.95707 18.5377L6.04925 18.628ZM4.96725 20.0494L4.85393 19.9878L4.85368 19.9883L4.96725 20.0494ZM4.31032 21.5104L4.18811 21.4692L4.18771 21.4704L4.31032 21.5104ZM3.96254 22.9121L4.08892 22.9379L4.08911 22.9369L3.96254 22.9121ZM3.78864 24.1954L3.91762 24.2074V24.1954H3.78864ZM5.33436 29.3285L5.42278 29.2346L5.42196 29.2339L5.33436 29.3285ZM12.6047 18.2603L12.6651 18.1464L12.6047 18.2603ZM12.4396 18.1653L12.3746 18.2767L12.4396 18.1653ZM12.5797 18.2465L12.6425 18.1338L12.5797 18.2465ZM9.4043 14.9819C8.30902 13.9206 7.72392 12.5327 7.72392 10.9877H7.46596C7.46596 12.6017 8.07879 14.0567 9.2248 15.1671L9.4043 14.9819ZM13.3914 16.6039C11.8412 16.6039 10.5014 16.0449 9.4043 14.9819L9.2248 15.1671C10.369 16.2758 11.7728 16.8619 13.3914 16.8619V16.6039ZM17.3777 15.0024C16.3206 16.0439 14.943 16.6039 13.3914 16.6039V16.8619C15.0085 16.8619 16.4518 16.2768 17.5587 15.1861L17.3777 15.0024ZM19.0782 10.9877C19.0782 12.5314 18.4746 13.9201 17.3776 15.0024L17.5588 15.1861C18.7031 14.0571 19.3361 12.603 19.3361 10.9877H19.0782ZM17.3978 7.01341C18.4743 8.05546 19.0782 9.44361 19.0782 10.9877H19.3361C19.3361 9.37305 18.7034 7.91823 17.5772 6.82807L17.3978 7.01341ZM9.42523 6.97229C11.5386 4.85145 15.2243 4.83116 17.3961 7.01176L17.5789 6.82972C15.3068 4.54845 11.4572 4.56765 9.24251 6.79022L9.42523 6.97229ZM7.72392 10.9877C7.72392 9.44317 8.30878 8.05511 9.42367 6.97384L9.24408 6.78867C8.07904 7.91859 7.46596 9.37348 7.46596 10.9877H7.72392ZM22.9425 25.4589C22.9425 27.0074 22.413 28.3139 21.3994 29.2537L21.5748 29.4429C22.6479 28.4479 23.2004 27.0693 23.2004 25.4589H22.9425ZM22.9246 24.8911C22.9338 25.0886 22.9425 25.274 22.9425 25.4589H23.2004C23.2004 25.267 23.1914 25.0755 23.1823 24.879L22.9246 24.8911ZM22.9038 24.1954C22.9038 24.4465 22.9145 24.6755 22.9246 24.8911L23.1823 24.879C23.1722 24.663 23.1618 24.4397 23.1618 24.1954H22.9038ZM22.8818 24.0206C22.8896 24.0852 22.8972 24.1489 22.9048 24.2111L23.1608 24.1798C23.1533 24.118 23.1457 24.0547 23.138 23.99L22.8818 24.0206ZM22.7703 23.1896C22.8163 23.472 22.8501 23.755 22.8818 24.0206L23.138 23.99C23.1064 23.7252 23.0719 23.4368 23.0248 23.148L22.7703 23.1896ZM22.7314 22.9313L22.77 23.188L23.0251 23.1496L22.9864 22.8929L22.7314 22.9313ZM22.388 21.529C22.5224 21.9607 22.6556 22.4475 22.7315 22.9321L22.9863 22.8922C22.9076 22.3896 22.7703 21.8892 22.6343 21.4523L22.388 21.529ZM21.7439 20.0965C21.9886 20.5005 22.1977 20.9849 22.3894 21.5332L22.6329 21.4481C22.4381 20.8908 22.2221 20.388 21.9645 19.9629L21.7439 20.0965ZM20.6651 18.7027C21.079 19.0872 21.4191 19.5304 21.7423 20.0939L21.9661 19.9655C21.6324 19.3839 21.2769 18.919 20.8406 18.5137L20.6651 18.7027ZM18.97 17.6239C19.5509 17.8345 20.1155 18.1799 20.664 18.7017L20.8418 18.5148C20.2696 17.9704 19.6749 17.6051 19.0579 17.3814L18.97 17.6239ZM16.9272 17.2565C17.6473 17.2565 18.3267 17.3726 18.967 17.6227L19.0609 17.3825C18.3873 17.1193 17.6756 16.9985 16.9272 16.9985V17.2565ZM15.1236 17.8672C15.5991 17.5563 16.1531 17.2565 16.9272 17.2565V16.9985C16.0784 16.9985 15.4731 17.3305 14.9824 17.6513L15.1236 17.8672ZM14.4051 18.3038L15.12 17.8695L14.9861 17.649L14.2712 18.0834L14.4051 18.3038ZM14.383 18.3175C14.3909 18.3126 14.3983 18.308 14.4056 18.3036L14.2707 18.0837C14.2629 18.0885 14.2549 18.0934 14.2471 18.0982L14.383 18.3175ZM13.9257 18.516C14.158 18.4566 14.2863 18.3774 14.383 18.3175L14.2471 18.0982C14.1591 18.1527 14.0569 18.2162 13.8618 18.2661L13.9257 18.516ZM12.9078 18.5336C13.2435 18.6409 13.5818 18.6406 13.9375 18.5124L13.85 18.2697C13.5487 18.3784 13.2688 18.3781 12.9862 18.2879L12.9078 18.5336ZM12.5444 18.3743C12.6205 18.4147 12.7424 18.4734 12.9028 18.5319L12.9912 18.2896C12.8434 18.2357 12.7324 18.182 12.6651 18.1464L12.5444 18.3743ZM11.7806 17.9299L12.3746 18.2767L12.5047 18.0539L11.9107 17.7071L11.7806 17.9299ZM9.89422 17.2565C10.7256 17.2565 11.3364 17.5955 11.768 17.9214L11.9234 17.7156C11.4662 17.3703 10.8017 16.9985 9.89422 16.9985V17.2565ZM7.8382 17.6412C8.47635 17.3727 9.17367 17.2565 9.89422 17.2565V16.9985C9.14634 16.9985 8.41387 17.1192 7.73816 17.4035L7.8382 17.6412ZM6.13789 18.7216C6.64762 18.2394 7.19382 17.893 7.83512 17.6425L7.74125 17.4022C7.06869 17.665 6.49423 18.0294 5.96061 18.5343L6.13789 18.7216ZM5.08056 20.111C5.36304 19.5915 5.72187 19.1469 6.14143 18.7182L5.95707 18.5377C5.52648 18.9777 5.15109 19.4413 4.85393 19.9878L5.08056 20.111ZM4.43253 21.5516C4.62224 20.9895 4.86933 20.5035 5.08081 20.1106L4.85368 19.9883C4.64009 20.3851 4.38484 20.8862 4.18812 21.4692L4.43253 21.5516ZM4.08911 22.9369C4.18524 22.4458 4.29999 21.9579 4.43294 21.5504L4.18771 21.4704C4.05015 21.8921 3.93305 22.3913 3.83596 22.8874L4.08911 22.9369ZM3.91762 24.1954C3.91762 23.8741 3.99231 23.4117 4.08891 22.9379L3.83616 22.8864C3.73955 23.3602 3.65967 23.8454 3.65967 24.1954H3.91762ZM3.87898 25.4589C3.87898 25.0236 3.87907 24.615 3.91706 24.2074L3.66022 24.1834C3.62093 24.605 3.62102 25.0257 3.62102 25.4589H3.87898ZM5.42196 29.2339C4.42721 28.3133 3.87898 27.0066 3.87898 25.4589H3.62102C3.62102 27.0701 4.19343 28.4484 5.24676 29.4232L5.42196 29.2339ZM9.12136 30.621C7.66297 30.621 6.38181 30.1377 5.42278 29.2346L5.24594 29.4224C6.2577 30.3752 7.60425 30.879 9.12136 30.879V30.621ZM17.6808 30.621H9.12136V30.879H17.6808V30.621ZM21.3996 29.2535C20.4216 30.1568 19.1402 30.621 17.6808 30.621V30.879C19.1968 30.879 20.5432 30.3956 21.5746 29.443L21.3996 29.2535ZM12.6651 18.1464C12.6643 18.1459 12.6646 18.1462 12.6425 18.1338L12.517 18.3592C12.538 18.3709 12.5406 18.3723 12.5444 18.3743L12.6651 18.1464ZM12.3746 18.2767C12.4528 18.3223 12.4939 18.3464 12.517 18.3592L12.6425 18.1338C12.6224 18.1226 12.5845 18.1006 12.5047 18.0539L12.3746 18.2767Z" fill="url(#paint1_linear_1971_75052)" mask="url(#path-2-inside-1_1971_75052)"/>
</g>
<defs>
<filter id="filter0_b_1971_75052" x="0.87" y="2.37" width="25.0815" height="31.26" filterUnits="userSpaceOnUse" color-interpolation-filters="sRGB">
<feFlood flood-opacity="0" result="BackgroundImageFix"/>
<feGaussianBlur in="BackgroundImageFix" stdDeviation="1.44"/>
<feComposite in2="SourceAlpha" operator="in" result="effect1_backgroundBlur_1971_75052"/>
<feBlend mode="normal" in="SourceGraphic" in2="effect1_backgroundBlur_1971_75052" result="shape"/>
</filter>
<linearGradient id="paint0_linear_1971_75052" x1="16.9942" y1="3.07761" x2="39.6418" y2="10.1107" gradientUnits="userSpaceOnUse">
<stop stop-color="#FDCAC9"/>
<stop offset="1" stop-color="#F21B3A"/>
</linearGradient>
<linearGradient id="paint1_linear_1971_75052" x1="2.3699" y1="7.56818" x2="32.361" y2="19.3014" gradientUnits="userSpaceOnUse">
<stop stop-color="white"/>
<stop offset="1" stop-color="white" stop-opacity="0"/>
</linearGradient>
</defs>
</svg>
