<svg width="36" height="36" viewBox="0 0 36 36" fill="none" xmlns="http://www.w3.org/2000/svg">
<path d="M23.6227 6.36303C22.4449 3.57986 19.1949 2.26227 16.3637 3.42011L6.42109 7.48619C3.58987 8.64404 2.24953 11.8389 3.42737 14.622L7.87727 25.137C9.05511 27.9201 12.3051 29.2377 15.1363 28.0799L25.0789 24.0138C27.9101 22.856 29.2505 19.6611 28.0726 16.878L23.6227 6.36303Z" fill="url(#paint0_linear_1971_75013)"/>
<g filter="url(#filter0_b_1971_75013)">
<g filter="url(#filter1_b_1971_75013)">
<rect width="24.6804" height="22.5993" rx="4" transform="matrix(-1 0 0 1 33.0029 10.4006)" fill="#4993FF" fill-opacity="0.6"/>
<rect x="-0.0452804" y="0.0452804" width="24.5899" height="22.5087" rx="3.95472" transform="matrix(-1 0 0 1 32.9124 10.4006)" stroke="url(#paint1_linear_1971_75013)" stroke-width="0.0905608"/>
</g>
</g>
<g filter="url(#filter2_b_1971_75013)">
<mask id="path-4-inside-1_1971_75013" fill="white">
<path d="M26.3044 27.5558H24.0719V24.1364C24.0719 23.3211 24.057 22.2714 22.9107 22.2714C21.748 22.2714 21.5701 23.1598 21.5701 24.0771V27.5556H19.3375V20.524H21.4808V21.4849H21.5108C21.7252 21.1263 22.0352 20.8312 22.4076 20.6312C22.7799 20.4312 23.2008 20.3337 23.6254 20.3491C25.8881 20.3491 26.3054 21.8047 26.3054 23.6984L26.3044 27.5558ZM16.8185 19.5628C16.5622 19.5629 16.3117 19.4886 16.0987 19.3494C15.8856 19.2102 15.7195 19.0123 15.6214 18.7808C15.5233 18.5493 15.4976 18.2945 15.5475 18.0488C15.5975 17.803 15.7208 17.5772 15.902 17.3999C16.0831 17.2227 16.314 17.102 16.5653 17.053C16.8166 17.0041 17.0771 17.0292 17.3138 17.125C17.5506 17.2209 17.7529 17.3832 17.8953 17.5916C18.0377 17.7999 18.1138 18.0449 18.1138 18.2955C18.1138 18.4619 18.0804 18.6267 18.0153 18.7804C17.9502 18.9342 17.8548 19.0738 17.7345 19.1915C17.6142 19.3092 17.4714 19.4026 17.3142 19.4663C17.1571 19.53 16.9886 19.5628 16.8185 19.5628ZM17.9347 27.5558H15.6999V20.524H17.9347V27.5558ZM27.4175 15.001H14.578C14.2866 14.9978 14.0058 15.1079 13.7973 15.307C13.5888 15.5062 13.4697 15.7782 13.4662 16.0632V28.6723C13.4696 28.9575 13.5886 29.2296 13.7971 29.429C14.0056 29.6284 14.2865 29.7387 14.578 29.7356H27.4175C27.7096 29.7392 27.9913 29.6292 28.2006 29.4299C28.4098 29.2305 28.5296 28.958 28.5338 28.6723V16.0622C28.5295 15.7767 28.4096 15.5044 28.2004 15.3052C27.9911 15.1061 27.7095 14.9963 27.4175 15.0001"/>
</mask>
<path d="M26.3044 27.5558H24.0719V24.1364C24.0719 23.3211 24.057 22.2714 22.9107 22.2714C21.748 22.2714 21.5701 23.1598 21.5701 24.0771V27.5556H19.3375V20.524H21.4808V21.4849H21.5108C21.7252 21.1263 22.0352 20.8312 22.4076 20.6312C22.7799 20.4312 23.2008 20.3337 23.6254 20.3491C25.8881 20.3491 26.3054 21.8047 26.3054 23.6984L26.3044 27.5558ZM16.8185 19.5628C16.5622 19.5629 16.3117 19.4886 16.0987 19.3494C15.8856 19.2102 15.7195 19.0123 15.6214 18.7808C15.5233 18.5493 15.4976 18.2945 15.5475 18.0488C15.5975 17.803 15.7208 17.5772 15.902 17.3999C16.0831 17.2227 16.314 17.102 16.5653 17.053C16.8166 17.0041 17.0771 17.0292 17.3138 17.125C17.5506 17.2209 17.7529 17.3832 17.8953 17.5916C18.0377 17.7999 18.1138 18.0449 18.1138 18.2955C18.1138 18.4619 18.0804 18.6267 18.0153 18.7804C17.9502 18.9342 17.8548 19.0738 17.7345 19.1915C17.6142 19.3092 17.4714 19.4026 17.3142 19.4663C17.1571 19.53 16.9886 19.5628 16.8185 19.5628ZM17.9347 27.5558H15.6999V20.524H17.9347V27.5558ZM27.4175 15.001H14.578C14.2866 14.9978 14.0058 15.1079 13.7973 15.307C13.5888 15.5062 13.4697 15.7782 13.4662 16.0632V28.6723C13.4696 28.9575 13.5886 29.2296 13.7971 29.429C14.0056 29.6284 14.2865 29.7387 14.578 29.7356H27.4175C27.7096 29.7392 27.9913 29.6292 28.2006 29.4299C28.4098 29.2305 28.5296 28.958 28.5338 28.6723V16.0622C28.5295 15.7767 28.4096 15.5044 28.2004 15.3052C27.9911 15.1061 27.7095 14.9963 27.4175 15.0001" fill="url(#paint2_linear_1971_75013)" fill-opacity="0.9"/>
<path d="M26.3044 27.5558V27.5903H26.339L26.339 27.5558L26.3044 27.5558ZM24.0719 27.5558H24.0373V27.5903H24.0719V27.5558ZM21.5701 27.5556V27.5901H21.6046V27.5556H21.5701ZM19.3375 27.5556H19.303V27.5901H19.3375V27.5556ZM19.3375 20.524V20.4894H19.303V20.524H19.3375ZM21.4808 20.524H21.5153V20.4894H21.4808V20.524ZM21.4808 21.4849H21.4462V21.5195H21.4808V21.4849ZM21.5108 21.4849V21.5195H21.5303L21.5404 21.5026L21.5108 21.4849ZM22.4076 20.6312L22.4239 20.6616V20.6616L22.4076 20.6312ZM23.6254 20.3491L23.6241 20.3836H23.6254V20.3491ZM26.3054 23.6984L26.3399 23.6984V23.6984H26.3054ZM16.8185 19.5628L16.8185 19.5283H16.8185L16.8185 19.5628ZM16.0987 19.3494L16.1175 19.3205L16.1175 19.3205L16.0987 19.3494ZM15.6214 18.7808L15.5896 18.7943L15.5896 18.7943L15.6214 18.7808ZM15.902 17.3999L15.9261 17.4246L15.9261 17.4246L15.902 17.3999ZM17.3138 17.125L17.3268 17.093L17.3268 17.093L17.3138 17.125ZM17.8953 17.5916L17.8668 17.6111L17.8668 17.6111L17.8953 17.5916ZM18.1138 18.2955L18.0793 18.2955V18.2955L18.1138 18.2955ZM18.0153 18.7804L17.9835 18.7669L17.9835 18.7669L18.0153 18.7804ZM17.7345 19.1915L17.7104 19.1668L17.7104 19.1668L17.7345 19.1915ZM17.3142 19.4663L17.3013 19.4342H17.3013L17.3142 19.4663ZM17.9347 27.5558V27.5903H17.9693V27.5558H17.9347ZM15.6999 27.5558H15.6653V27.5903H15.6999V27.5558ZM15.6999 20.524V20.4894H15.6653V20.524H15.6999ZM17.9347 20.524H17.9693V20.4894H17.9347V20.524ZM14.578 15.001L14.5777 15.0356H14.578V15.001ZM13.7973 15.307L13.8212 15.332L13.8212 15.332L13.7973 15.307ZM13.4662 16.0632L13.4316 16.0627V16.0632H13.4662ZM13.4662 28.6723H13.4316L13.4316 28.6727L13.4662 28.6723ZM13.7971 29.429L13.7732 29.454L13.7732 29.454L13.7971 29.429ZM14.578 29.7356V29.701L14.5777 29.701L14.578 29.7356ZM27.4175 29.7356L27.4179 29.701H27.4175V29.7356ZM28.2006 29.4299L28.2244 29.4549L28.2244 29.4549L28.2006 29.4299ZM28.5338 28.6723L28.5683 28.6728V28.6723H28.5338ZM28.5338 16.0622H28.5683L28.5683 16.0617L28.5338 16.0622ZM28.2004 15.3052L28.2242 15.2802L28.2242 15.2802L28.2004 15.3052ZM26.3044 27.5213H24.0719V27.5903H26.3044V27.5213ZM24.1064 27.5558V24.1364H24.0373V27.5558H24.1064ZM24.1064 24.1364C24.1064 23.7303 24.1032 23.2569 23.9532 22.8852C23.8778 22.6984 23.7647 22.5355 23.5952 22.4196C23.4257 22.3038 23.2027 22.2369 22.9107 22.2369V22.306C23.1919 22.306 23.4006 22.3703 23.5562 22.4767C23.7119 22.5831 23.8175 22.7336 23.8891 22.9111C24.0331 23.2681 24.0373 23.7272 24.0373 24.1364H24.1064ZM22.9107 22.2369C22.6157 22.2369 22.3806 22.2932 22.1943 22.3942C22.0077 22.4952 21.872 22.6399 21.7743 22.8133C21.5797 23.1584 21.5355 23.6178 21.5355 24.0771H21.6046C21.6046 23.6191 21.6494 23.1756 21.8345 22.8472C21.9266 22.6838 22.0533 22.5491 22.2272 22.4549C22.4012 22.3606 22.6244 22.306 22.9107 22.306V22.2369ZM21.5355 24.0771V27.5556H21.6046V24.0771H21.5355ZM21.5701 27.521H19.3375V27.5901H21.5701V27.521ZM19.3721 27.5556V20.524H19.303V27.5556H19.3721ZM19.3375 20.5585H21.4808V20.4894H19.3375V20.5585ZM21.4462 20.524V21.4849H21.5153V20.524H21.4462ZM21.4808 21.5195H21.5108V21.4504H21.4808V21.5195ZM21.5404 21.5026C21.7517 21.1494 22.057 20.8587 22.4239 20.6616L22.3912 20.6007C22.0134 20.8037 21.6988 21.1031 21.4811 21.4672L21.5404 21.5026ZM22.4239 20.6616C22.7909 20.4645 23.2057 20.3684 23.6241 20.3836L23.6266 20.3145C23.196 20.2989 22.769 20.3978 22.3912 20.6007L22.4239 20.6616ZM23.6254 20.3836C24.7486 20.3836 25.4058 20.7442 25.7849 21.3323C26.1662 21.9239 26.2708 22.7523 26.2708 23.6984H26.3399C26.3399 22.7507 26.2359 21.9045 25.843 21.2949C25.4477 20.6817 24.765 20.3145 23.6254 20.3145V20.3836ZM26.2708 23.6984L26.2699 27.5558L26.339 27.5558L26.3399 23.6984L26.2708 23.6984ZM16.8185 19.5283C16.5689 19.5283 16.325 19.456 16.1175 19.3205L16.0798 19.3783C16.2985 19.5212 16.5556 19.5974 16.8185 19.5974L16.8185 19.5283ZM16.1175 19.3205C15.9101 19.185 15.7486 18.9925 15.6532 18.7673L15.5896 18.7943C15.6904 19.0322 15.861 19.2354 16.0798 19.3783L16.1175 19.3205ZM15.6532 18.7673C15.5578 18.5422 15.5328 18.2946 15.5814 18.0556L15.5137 18.0419C15.4623 18.2945 15.4888 18.5564 15.5896 18.7943L15.6532 18.7673ZM15.5814 18.0556C15.6299 17.8167 15.7499 17.5971 15.9261 17.4246L15.8778 17.3752C15.6918 17.5572 15.565 17.7892 15.5137 18.0419L15.5814 18.0556ZM15.9261 17.4246C16.1024 17.2522 16.3271 17.1346 16.5719 17.087L16.5587 17.0191C16.3008 17.0693 16.0639 17.1932 15.8778 17.3752L15.9261 17.4246ZM16.5719 17.087C16.8166 17.0393 17.0703 17.0637 17.3009 17.157L17.3268 17.093C17.0838 16.9946 16.8165 16.9689 16.5587 17.0191L16.5719 17.087ZM17.3009 17.157C17.5314 17.2504 17.7283 17.4084 17.8668 17.6111L17.9239 17.5721C17.7776 17.3581 17.5698 17.1914 17.3268 17.093L17.3009 17.157ZM17.8668 17.6111C18.0053 17.8137 18.0792 18.0519 18.0793 18.2955L18.1484 18.2955C18.1483 18.0379 18.0702 17.7861 17.9239 17.5721L17.8668 17.6111ZM18.0793 18.2955C18.0793 18.4573 18.0467 18.6174 17.9835 18.7669L18.0471 18.7939C18.114 18.6359 18.1484 18.4665 18.1484 18.2955L18.0793 18.2955ZM17.9835 18.7669C17.9202 18.9164 17.8274 19.0523 17.7104 19.1668L17.7587 19.2162C17.8822 19.0954 17.9802 18.9519 18.0471 18.7939L17.9835 18.7669ZM17.7104 19.1668C17.5933 19.2813 17.4543 19.3722 17.3013 19.4342L17.3272 19.4983C17.4885 19.4329 17.6352 19.3371 17.7587 19.2162L17.7104 19.1668ZM17.3013 19.4342C17.1482 19.4963 16.9842 19.5282 16.8185 19.5283L16.8185 19.5974C16.9931 19.5973 17.1659 19.5637 17.3272 19.4983L17.3013 19.4342ZM17.9347 27.5213H15.6999V27.5903H17.9347V27.5213ZM15.7344 27.5558V20.524H15.6653V27.5558H15.7344ZM15.6999 20.5585H17.9347V20.4894H15.6999V20.5585ZM17.9002 20.524V27.5558H17.9693V20.524H17.9002ZM27.4175 14.9665H14.578V15.0356H27.4175V14.9665ZM14.5784 14.9665C14.2781 14.9631 13.9885 15.0766 13.7735 15.282L13.8212 15.332C14.0231 15.1391 14.2952 15.0324 14.5777 15.0356L14.5784 14.9665ZM13.7735 15.282C13.5583 15.4875 13.4353 15.7683 13.4316 16.0627L13.5007 16.0636C13.5042 15.788 13.6193 15.5248 13.8212 15.332L13.7735 15.282ZM13.4316 16.0632V28.6723H13.5007V16.0632H13.4316ZM13.4316 28.6727C13.4352 28.9673 13.5581 29.2482 13.7732 29.454L13.821 29.4041C13.6191 29.2109 13.5041 28.9477 13.5007 28.6719L13.4316 28.6727ZM13.7732 29.454C13.9883 29.6596 14.2779 29.7733 14.5784 29.7701L14.5777 29.701C14.295 29.704 14.0229 29.5971 13.821 29.4041L13.7732 29.454ZM14.578 29.7701H27.4175V29.701H14.578V29.7701ZM27.417 29.7701C27.7181 29.7738 28.0085 29.6605 28.2244 29.4549L28.1768 29.4048C27.9741 29.5979 27.7011 29.7045 27.4179 29.701L27.417 29.7701ZM28.2244 29.4549C28.4403 29.2492 28.5641 28.9679 28.5683 28.6728L28.4992 28.6718C28.4952 28.9481 28.3793 29.2118 28.1768 29.4048L28.2244 29.4549ZM28.5683 28.6723V16.0622H28.4992V28.6723H28.5683ZM28.5683 16.0617C28.5639 15.7668 28.44 15.4857 28.2242 15.2802L28.1766 15.3303C28.3791 15.5231 28.4951 15.7866 28.4992 16.0628L28.5683 16.0617ZM28.2242 15.2802C28.0083 15.0748 27.718 14.9617 27.417 14.9655L27.4179 15.0346C27.701 15.031 27.9739 15.1374 28.1766 15.3303L28.2242 15.2802Z" fill="url(#paint3_linear_1971_75013)" mask="url(#path-4-inside-1_1971_75013)"/>
</g>
<defs>
<filter id="filter0_b_1971_75013" x="6.4968" y="8.57493" width="28.3318" height="26.2508" filterUnits="userSpaceOnUse" color-interpolation-filters="sRGB">
<feFlood flood-opacity="0" result="BackgroundImageFix"/>
<feGaussianBlur in="BackgroundImageFix" stdDeviation="0.912853"/>
<feComposite in2="SourceAlpha" operator="in" result="effect1_backgroundBlur_1971_75013"/>
<feBlend mode="normal" in="SourceGraphic" in2="effect1_backgroundBlur_1971_75013" result="shape"/>
</filter>
<filter id="filter1_b_1971_75013" x="5.44251" y="7.52063" width="30.4404" height="28.3594" filterUnits="userSpaceOnUse" color-interpolation-filters="sRGB">
<feFlood flood-opacity="0" result="BackgroundImageFix"/>
<feGaussianBlur in="BackgroundImageFix" stdDeviation="1.44"/>
<feComposite in2="SourceAlpha" operator="in" result="effect1_backgroundBlur_1971_75013"/>
<feBlend mode="normal" in="SourceGraphic" in2="effect1_backgroundBlur_1971_75013" result="shape"/>
</filter>
<filter id="filter2_b_1971_75013" x="12.5271" y="14.061" width="16.9457" height="16.6137" filterUnits="userSpaceOnUse" color-interpolation-filters="sRGB">
<feFlood flood-opacity="0" result="BackgroundImageFix"/>
<feGaussianBlur in="BackgroundImageFix" stdDeviation="0.469521"/>
<feComposite in2="SourceAlpha" operator="in" result="effect1_backgroundBlur_1971_75013"/>
<feBlend mode="normal" in="SourceGraphic" in2="effect1_backgroundBlur_1971_75013" result="shape"/>
</filter>
<linearGradient id="paint0_linear_1971_75013" x1="34.3921" y1="-4.65897" x2="2.35445" y2="3.36261" gradientUnits="userSpaceOnUse">
<stop stop-color="#BDE0FF"/>
<stop offset="1" stop-color="#2C7FFF"/>
</linearGradient>
<linearGradient id="paint1_linear_1971_75013" x1="-1.76289" y1="2.05448" x2="28.9653" y2="20.2729" gradientUnits="userSpaceOnUse">
<stop stop-color="white"/>
<stop offset="1" stop-color="white" stop-opacity="0"/>
</linearGradient>
<linearGradient id="paint2_linear_1971_75013" x1="-9.74994" y1="-6.75" x2="23.3777" y2="32.9028" gradientUnits="userSpaceOnUse">
<stop stop-color="white" stop-opacity="0"/>
<stop offset="0.843729" stop-color="white"/>
</linearGradient>
<linearGradient id="paint3_linear_1971_75013" x1="32.3262" y1="23.1752" x2="6.70112" y2="23.1752" gradientUnits="userSpaceOnUse">
<stop stop-color="white" stop-opacity="0"/>
<stop offset="1" stop-color="white"/>
</linearGradient>
</defs>
</svg>
