<svg width="37" height="36" viewBox="0 0 37 36" fill="none" xmlns="http://www.w3.org/2000/svg">
<rect x="11.3262" y="11.75" width="22.3404" height="21.25" rx="1.66875" fill="url(#paint0_linear_1971_75025)"/>
<g filter="url(#filter0_b_1971_75025)">
<path d="M23.2872 3H7.02505C5.16924 3 3.66675 4.47119 3.66675 6.28834V27.4045C3.66675 29.2217 5.16924 30.6928 7.02505 30.6928H23.2872C25.143 30.6928 26.6455 29.2217 26.6455 27.4045V6.28834C26.6461 4.47119 25.1436 3 23.2872 3Z" fill="#F5C044" fill-opacity="0.6"/>
<path d="M7.02505 3.02418H23.2872C25.1307 3.02418 26.6219 4.48503 26.6213 6.28833V27.4045C26.6213 29.2078 25.1301 30.6687 23.2872 30.6687H7.02505C5.18211 30.6687 3.69093 29.2078 3.69093 27.4045V6.28834C3.69093 4.48502 5.18211 3.02418 7.02505 3.02418Z" stroke="url(#paint1_linear_1971_75025)" stroke-width="0.0483659"/>
</g>
<mask id="path-4-inside-1_1971_75025" fill="white">
<path fill-rule="evenodd" clip-rule="evenodd" d="M17.9768 12.7344C18.5238 12.0197 18.8891 11.2161 18.8891 10.3228C18.8891 8.3579 17.2469 6.75 15.2402 6.75C13.2334 6.75 11.5919 8.3579 11.5919 10.3228C11.5919 11.305 11.9566 12.1093 12.5035 12.7344C10.5883 13.538 9.21993 15.2349 8.85529 17.2894C8.76383 17.5575 8.85529 17.825 9.03761 18.0041C9.21993 18.2716 9.49372 18.3612 9.76751 18.3612H20.5306C20.8043 18.3612 21.0781 18.2716 21.3513 18.0931C21.5342 17.9145 21.5342 17.6465 21.5342 17.3784C21.169 15.3245 19.8007 13.6276 17.9768 12.7344ZM15.1766 8.53642C16.1845 8.53642 17.001 9.33652 17.001 10.3228C17.001 11.3092 16.1845 12.1093 15.1766 12.1093C14.1687 12.1093 13.3522 11.3092 13.3522 10.3228C13.3522 9.33652 14.1693 8.53642 15.1766 8.53642ZM10.9808 16.5747C11.7107 14.9674 13.3522 13.8951 15.1766 13.8951C17.0925 13.8951 18.6431 14.9674 19.3724 16.5747H10.9808ZM22.3646 26.7499H7.77037C7.2228 26.7499 6.85815 26.3929 6.85815 25.8567C6.85815 25.3205 7.2228 24.9635 7.77037 24.9635H22.3646C22.9122 24.9635 23.2768 25.3205 23.2768 25.8567C23.2768 26.3929 22.9122 26.7499 22.3646 26.7499ZM7.77037 23.1772H22.3646C22.9122 23.1772 23.2768 22.8201 23.2768 22.284C23.2768 21.7478 22.9122 21.3907 22.3646 21.3907H7.77037C7.2228 21.3907 6.85815 21.7478 6.85815 22.284C6.85815 22.8201 7.2228 23.1772 7.77037 23.1772Z"/>
</mask>
<path fill-rule="evenodd" clip-rule="evenodd" d="M17.9768 12.7344C18.5238 12.0197 18.8891 11.2161 18.8891 10.3228C18.8891 8.3579 17.2469 6.75 15.2402 6.75C13.2334 6.75 11.5919 8.3579 11.5919 10.3228C11.5919 11.305 11.9566 12.1093 12.5035 12.7344C10.5883 13.538 9.21993 15.2349 8.85529 17.2894C8.76383 17.5575 8.85529 17.825 9.03761 18.0041C9.21993 18.2716 9.49372 18.3612 9.76751 18.3612H20.5306C20.8043 18.3612 21.0781 18.2716 21.3513 18.0931C21.5342 17.9145 21.5342 17.6465 21.5342 17.3784C21.169 15.3245 19.8007 13.6276 17.9768 12.7344ZM15.1766 8.53642C16.1845 8.53642 17.001 9.33652 17.001 10.3228C17.001 11.3092 16.1845 12.1093 15.1766 12.1093C14.1687 12.1093 13.3522 11.3092 13.3522 10.3228C13.3522 9.33652 14.1693 8.53642 15.1766 8.53642ZM10.9808 16.5747C11.7107 14.9674 13.3522 13.8951 15.1766 13.8951C17.0925 13.8951 18.6431 14.9674 19.3724 16.5747H10.9808ZM22.3646 26.7499H7.77037C7.2228 26.7499 6.85815 26.3929 6.85815 25.8567C6.85815 25.3205 7.2228 24.9635 7.77037 24.9635H22.3646C22.9122 24.9635 23.2768 25.3205 23.2768 25.8567C23.2768 26.3929 22.9122 26.7499 22.3646 26.7499ZM7.77037 23.1772H22.3646C22.9122 23.1772 23.2768 22.8201 23.2768 22.284C23.2768 21.7478 22.9122 21.3907 22.3646 21.3907H7.77037C7.2228 21.3907 6.85815 21.7478 6.85815 22.284C6.85815 22.8201 7.2228 23.1772 7.77037 23.1772Z" fill="url(#paint2_linear_1971_75025)" fill-opacity="0.9"/>
<path d="M17.9768 12.7344L17.9666 12.7265L17.9569 12.7391L17.9711 12.746L17.9768 12.7344ZM12.5035 12.7344L12.5086 12.7463L12.5251 12.7394L12.5133 12.7259L12.5035 12.7344ZM8.85529 17.2894L8.8677 17.2937L8.86805 17.2917L8.85529 17.2894ZM9.03761 18.0041L9.04853 17.9967L9.04669 17.9949L9.03761 18.0041ZM21.3513 18.0931L21.3585 18.1041L21.3604 18.1023L21.3513 18.0931ZM21.5342 17.3784H21.5474L21.547 17.3761L21.5342 17.3784ZM10.9808 16.5747L10.969 16.5694L10.9607 16.5877H10.9808V16.5747ZM19.3724 16.5747V16.5877H19.3925L19.3842 16.5694L19.3724 16.5747ZM18.8761 10.3228C18.8761 11.2123 18.5124 12.0133 17.9666 12.7265L17.9871 12.7423C18.5352 12.0261 18.902 11.2198 18.902 10.3228H18.8761ZM15.2402 6.76296C17.2401 6.76296 18.8761 8.36531 18.8761 10.3228H18.902C18.902 8.35049 17.2538 6.73704 15.2402 6.73704V6.76296ZM11.6049 10.3228C11.6049 8.36531 13.2403 6.76296 15.2402 6.76296V6.73704C13.2265 6.73704 11.579 8.35049 11.579 10.3228H11.6049ZM12.5133 12.7259C11.9682 12.1028 11.6049 11.3016 11.6049 10.3228H11.579C11.579 11.3085 11.945 12.1157 12.4938 12.7429L12.5133 12.7259ZM8.86805 17.2917C9.23192 15.2415 10.5973 13.5483 12.5086 12.7463L12.4985 12.7224C10.5792 13.5278 9.20795 15.2283 8.84253 17.2872L8.86805 17.2917ZM9.04669 17.9949C8.86734 17.8187 8.77795 17.5562 8.86755 17.2936L8.84303 17.2852C8.74971 17.5588 8.84324 17.8313 9.02853 18.0133L9.04669 17.9949ZM9.76751 18.3482C9.4966 18.3482 9.22753 18.2597 9.04832 17.9968L9.02691 18.0114C9.21234 18.2835 9.49084 18.3741 9.76751 18.3741V18.3482ZM20.5306 18.3482H9.76751V18.3741H20.5306V18.3482ZM21.3442 18.0822C21.0727 18.2596 20.8014 18.3482 20.5306 18.3482V18.3741C20.8073 18.3741 21.0835 18.2835 21.3584 18.1039L21.3442 18.0822ZM21.5213 17.3784C21.5213 17.5127 21.5212 17.6455 21.4986 17.7669C21.4761 17.8881 21.4312 17.997 21.3423 18.0838L21.3604 18.1023C21.4543 18.0106 21.5009 17.8962 21.5241 17.7717C21.5472 17.6474 21.5472 17.5122 21.5472 17.3784H21.5213ZM17.9711 12.746C19.7915 13.6376 21.157 15.3311 21.5215 17.3807L21.547 17.3761C21.181 15.3179 19.8098 13.6177 17.9825 12.7228L17.9711 12.746ZM17.014 10.3228C17.014 9.32911 16.1914 8.52347 15.1766 8.52347V8.54938C16.1776 8.54938 16.9881 9.34392 16.9881 10.3228H17.014ZM15.1766 12.1222C16.1914 12.1222 17.014 11.3166 17.014 10.3228H16.9881C16.9881 11.3018 16.1776 12.0963 15.1766 12.0963V12.1222ZM13.3392 10.3228C13.3392 11.3166 14.1618 12.1222 15.1766 12.1222V12.0963C14.1756 12.0963 13.3651 11.3018 13.3651 10.3228H13.3392ZM15.1766 8.52347C14.1624 8.52347 13.3392 9.32911 13.3392 10.3228H13.3651C13.3651 9.34393 14.1762 8.54938 15.1766 8.54938V8.52347ZM15.1766 13.8821C13.3471 13.8821 11.701 14.9574 10.969 16.5694L10.9926 16.5801C11.7203 14.9774 13.3572 13.9081 15.1766 13.9081V13.8821ZM19.3842 16.5694C18.6529 14.9576 17.0977 13.8821 15.1766 13.8821V13.9081C17.0873 13.9081 18.6334 14.9773 19.3606 16.5801L19.3842 16.5694ZM10.9808 16.5877H19.3724V16.5618H10.9808V16.5877ZM7.77037 26.7629H22.3646V26.737H7.77037V26.7629ZM6.8452 25.8567C6.8452 26.1278 6.93745 26.3546 7.09986 26.5136C7.26224 26.6726 7.49372 26.7629 7.77037 26.7629V26.737C7.49944 26.737 7.27482 26.6487 7.11799 26.4951C6.96118 26.3416 6.87111 26.1218 6.87111 25.8567H6.8452ZM7.77037 24.9505C7.49372 24.9505 7.26224 25.0408 7.09986 25.1998C6.93745 25.3588 6.8452 25.5856 6.8452 25.8567H6.87111C6.87111 25.5917 6.96118 25.3718 7.11799 25.2183C7.27482 25.0647 7.49944 24.9765 7.77037 24.9765V24.9505ZM22.3646 24.9505H7.77037V24.9765H22.3646V24.9505ZM23.2898 25.8567C23.2898 25.5856 23.1975 25.3588 23.0351 25.1998C22.8727 25.0408 22.6413 24.9505 22.3646 24.9505V24.9765C22.6355 24.9765 22.8602 25.0647 23.017 25.2183C23.1738 25.3718 23.2639 25.5917 23.2639 25.8567H23.2898ZM22.3646 26.7629C22.6413 26.7629 22.8727 26.6726 23.0351 26.5136C23.1975 26.3546 23.2898 26.1278 23.2898 25.8567H23.2639C23.2639 26.1218 23.1738 26.3416 23.017 26.4951C22.8602 26.6487 22.6355 26.737 22.3646 26.737V26.7629ZM22.3646 23.1642H7.77037V23.1901H22.3646V23.1642ZM23.2639 22.284C23.2639 22.549 23.1738 22.7688 23.017 22.9224C22.8602 23.0759 22.6355 23.1642 22.3646 23.1642V23.1901C22.6413 23.1901 22.8727 23.0999 23.0351 22.9409C23.1975 22.7819 23.2898 22.5551 23.2898 22.284H23.2639ZM22.3646 21.4037C22.6355 21.4037 22.8602 21.492 23.017 21.6455C23.1738 21.7991 23.2639 22.0189 23.2639 22.284H23.2898C23.2898 22.0129 23.1975 21.7861 23.0351 21.627C22.8727 21.468 22.6413 21.3778 22.3646 21.3778V21.4037ZM7.77037 21.4037H22.3646V21.3778H7.77037V21.4037ZM6.87111 22.284C6.87111 22.0189 6.96118 21.7991 7.11799 21.6455C7.27482 21.492 7.49944 21.4037 7.77037 21.4037V21.3778C7.49372 21.3778 7.26224 21.468 7.09986 21.627C6.93745 21.7861 6.8452 22.0129 6.8452 22.284H6.87111ZM7.77037 23.1642C7.49944 23.1642 7.27482 23.0759 7.11799 22.9224C6.96118 22.7688 6.87111 22.549 6.87111 22.284H6.8452C6.8452 22.5551 6.93745 22.7819 7.09986 22.9409C7.26224 23.0999 7.49372 23.1901 7.77037 23.1901V23.1642Z" fill="url(#paint3_linear_1971_75025)" mask="url(#path-4-inside-1_1971_75025)"/>
<defs>
<filter id="filter0_b_1971_75025" x="2.58675" y="1.92" width="25.1388" height="29.8529" filterUnits="userSpaceOnUse" color-interpolation-filters="sRGB">
<feFlood flood-opacity="0" result="BackgroundImageFix"/>
<feGaussianBlur in="BackgroundImageFix" stdDeviation="0.54"/>
<feComposite in2="SourceAlpha" operator="in" result="effect1_backgroundBlur_1971_75025"/>
<feBlend mode="normal" in="SourceGraphic" in2="effect1_backgroundBlur_1971_75025" result="shape"/>
</filter>
<linearGradient id="paint0_linear_1971_75025" x1="35.2623" y1="33" x2="4.89203" y2="21.5608" gradientUnits="userSpaceOnUse">
<stop stop-color="#F8D352"/>
<stop offset="1" stop-color="#EC8416"/>
</linearGradient>
<linearGradient id="paint1_linear_1971_75025" x1="2.02541" y1="5.51753" x2="36.7743" y2="20.4051" gradientUnits="userSpaceOnUse">
<stop stop-color="white"/>
<stop offset="1" stop-color="white" stop-opacity="0"/>
</linearGradient>
<linearGradient id="paint2_linear_1971_75025" x1="0.156027" y1="1.4375" x2="24.8206" y2="23.3979" gradientUnits="userSpaceOnUse">
<stop stop-color="white" stop-opacity="0"/>
<stop offset="0.672434" stop-color="white"/>
</linearGradient>
<linearGradient id="paint3_linear_1971_75025" x1="27.4094" y1="17.8459" x2="-0.51353" y2="17.8459" gradientUnits="userSpaceOnUse">
<stop stop-color="white" stop-opacity="0"/>
<stop offset="1" stop-color="white"/>
</linearGradient>
</defs>
</svg>
