<svg width="467" height="397" viewBox="0 0 467 397" fill="none" xmlns="http://www.w3.org/2000/svg">
<path d="M36.3711 303.896C36.3711 305.086 35.4073 306.05 34.2174 306.05C33.0274 306.05 32.0636 305.086 32.0636 303.896C32.0636 302.706 33.0274 301.742 34.2174 301.742C35.4073 301.742 36.3711 302.706 36.3711 303.896Z" fill="#F99C7B"/>
<path d="M112.368 174.049C112.368 175.179 111.451 176.095 110.321 176.095C109.191 176.095 110.749 175.179 110.749 174.049C110.749 172.918 109.191 172.002 110.321 172.002C111.451 172.002 112.368 172.918 112.368 174.049Z" fill="#F99C7B"/>
<path d="M62.8526 129.733C62.8526 130.804 61.9839 131.673 60.913 131.673C59.842 131.673 58.9734 130.804 58.9734 129.733C58.9734 128.662 59.842 127.793 60.913 127.793C61.9839 127.793 62.8526 128.662 62.8526 129.733Z" fill="#F99C7B"/>
<path d="M166.152 62.3684C166.152 62.9039 165.723 63.3322 165.188 63.3322C164.653 63.3322 164.224 62.9039 164.224 62.3684C164.224 61.8329 164.653 61.4045 165.188 61.4045C165.723 61.4045 166.152 61.8329 166.152 62.3684Z" fill="#FDDACE"/>
<path d="M296.177 59.4646C296.177 60.476 295.356 61.2971 294.344 61.2971C293.333 61.2971 292.512 60.476 292.512 59.4646C292.512 58.4531 293.333 57.6321 294.344 57.6321C295.356 57.6321 296.177 58.4531 296.177 59.4646Z" fill="#FDDACE"/>
<path d="M377.758 99.2963C377.758 100.01 377.175 100.593 376.461 100.593C375.747 100.593 375.164 100.01 375.164 99.2963C375.164 98.5823 375.747 97.9993 376.461 97.9993C377.175 97.9993 377.758 98.5823 377.758 99.2963Z" fill="#FDDACE"/>
<path d="M441.966 132.454C442.86 132.454 443.585 131.73 443.585 130.836C443.585 129.942 442.86 129.218 441.966 129.218C441.073 129.218 440.348 129.942 440.348 130.836C440.348 131.73 441.073 132.454 441.966 132.454Z" fill="#E3ECF7"/>
<path d="M379.417 213.521H378.406C377.846 213.521 377.394 213.069 377.394 212.51V211.498C377.394 211.01 377.061 210.558 376.585 210.463C375.943 210.332 375.359 210.832 375.359 211.462V212.51C375.359 213.069 374.907 213.521 374.348 213.521H373.337C372.849 213.521 372.397 213.854 372.301 214.33C372.17 214.973 372.67 215.556 373.301 215.556H374.348C374.907 215.556 375.359 216.008 375.359 216.567V217.579C375.359 218.067 375.693 218.519 376.169 218.614C376.811 218.745 377.394 218.245 377.394 217.614V216.567C377.394 216.008 377.846 215.556 378.406 215.556H379.453C380.084 215.556 380.571 214.985 380.452 214.33C380.357 213.854 379.905 213.521 379.417 213.521Z" fill="#F8916D"/>
<path d="M118.783 333.029H117.664C117.045 333.029 116.545 332.529 116.545 331.91V330.792C116.545 330.245 116.177 329.745 115.641 329.638C114.927 329.495 114.285 330.054 114.285 330.744V331.91C114.285 332.529 113.785 333.029 113.166 333.029H112.048C111.5 333.029 111 333.398 110.893 333.933C110.75 334.647 111.31 335.29 112 335.29H113.166C113.785 335.29 114.285 335.79 114.285 336.408V337.527C114.285 338.074 114.653 338.574 115.189 338.681C115.903 338.824 116.545 338.265 116.545 337.575V336.408C116.545 335.79 117.045 335.29 117.664 335.29H118.83C119.52 335.29 120.08 334.647 119.937 333.933C119.83 333.398 119.33 333.029 118.783 333.029Z" fill="#F99C7B"/>
<path d="M242.82 58.3224H241.963C241.487 58.3224 241.107 57.9416 241.107 57.4656V56.6089C241.107 56.1924 240.833 55.8116 240.416 55.7283C239.869 55.6212 239.381 56.0377 239.381 56.5732V57.4656C239.381 57.9416 239 58.3224 238.524 58.3224H237.668C237.251 58.3224 236.87 58.596 236.787 59.0125C236.68 59.5599 237.097 60.0478 237.632 60.0478H238.524C239 60.0478 239.381 60.4285 239.381 60.9045V61.7613C239.381 62.1777 239.655 62.5585 240.071 62.6418C240.619 62.7489 241.107 62.3324 241.107 61.797V60.9045C241.107 60.4285 241.487 60.0478 241.963 60.0478H242.856C243.391 60.0478 243.808 59.5599 243.701 59.0125C243.617 58.6079 243.237 58.3224 242.82 58.3224Z" fill="#FDDACE"/>
<path d="M128.935 233.133H142.793C143.58 233.133 144.221 232.492 144.221 231.705C144.221 230.918 143.58 230.276 142.793 230.276H128.935C128.148 230.276 127.506 230.918 127.506 231.705C127.506 232.492 128.148 233.133 128.935 233.133Z" fill="#FDDACE"/>
<path d="M122.342 233.133H123.954C124.741 233.133 125.383 232.492 125.383 231.705C125.383 230.918 124.741 230.276 123.954 230.276H122.342C121.555 230.276 120.914 230.918 120.914 231.705C120.914 232.492 121.555 233.133 122.342 233.133Z" fill="#FDDACE"/>
<path d="M114.222 233.133H114.512C115.299 233.133 115.94 232.492 115.94 231.705C115.94 230.918 115.299 230.276 114.512 230.276H114.222C113.435 230.276 112.793 230.918 112.793 231.705C112.793 232.492 113.435 233.133 114.222 233.133Z" fill="#FDDACE"/>
<path d="M365.656 277.49H348.14C347.153 277.49 346.332 276.681 346.332 275.682C346.332 274.694 347.141 273.873 348.14 273.873H365.656C366.644 273.873 367.465 274.682 367.465 275.682C367.465 276.669 366.656 277.49 365.656 277.49Z" fill="#FDDACE"/>
<path d="M373.986 277.49H371.951C370.963 277.49 370.142 276.681 370.142 275.682C370.142 274.694 370.952 273.873 371.951 273.873H373.986C374.973 273.873 375.795 274.682 375.795 275.682C375.795 276.669 374.985 277.49 373.986 277.49Z" fill="#FDDACE"/>
<path d="M384.255 277.49H383.886C382.898 277.49 382.077 276.681 382.077 275.682C382.077 274.694 382.886 273.873 383.886 273.873H384.255C385.242 273.873 386.063 274.682 386.063 275.682C386.063 276.669 385.254 277.49 384.255 277.49Z" fill="#FDDACE"/>
<path d="M355.804 153.51H323.153C322.165 153.51 321.344 152.701 321.344 151.702C321.344 150.714 322.153 149.893 323.153 149.893H355.804C356.792 149.893 357.613 150.702 357.613 151.702C357.613 152.689 356.804 153.51 355.804 153.51Z" fill="#FDDACE"/>
<path d="M366.252 153.51H365.883C364.895 153.51 364.074 152.701 364.074 151.702C364.074 150.714 364.884 149.893 365.883 149.893H366.252C367.24 149.893 368.061 150.702 368.061 151.702C368.061 152.689 367.251 153.51 366.252 153.51Z" fill="#FDDACE"/>
<path d="M105.263 100.492H105.585C106.453 100.492 107.167 99.7779 107.167 98.9093C107.167 98.0406 106.453 97.3267 105.585 97.3267H105.263C104.395 97.3267 103.681 98.0406 103.681 98.9093C103.681 99.7779 104.395 100.492 105.263 100.492Z" fill="#FDDACE"/>
<path d="M112.762 100.492H114.547C115.415 100.492 116.129 99.7779 116.129 98.9093C116.129 98.0406 115.415 97.3267 114.547 97.3267H112.762C111.893 97.3267 111.167 98.0406 111.167 98.9093C111.167 99.7779 111.881 100.492 112.762 100.492Z" fill="#FDDACE"/>
<path d="M121.724 100.492H166.763C167.631 100.492 168.357 99.7779 168.357 98.9093C168.357 98.0406 167.643 97.3267 166.763 97.3267H121.724C120.855 97.3267 120.129 98.0406 120.129 98.9093C120.129 99.7779 120.843 100.492 121.724 100.492Z" fill="#FDDACE"/>
<path d="M68.4488 244.589H67.6515C67.2112 244.589 66.8543 244.232 66.8543 243.791V242.994C66.8543 242.613 66.5925 242.256 66.2117 242.173C65.7 242.078 65.2478 242.459 65.2478 242.958V243.78C65.2478 244.22 64.8909 244.577 64.4506 244.577H63.6533C63.2726 244.577 62.9156 244.839 62.8323 245.219C62.7371 245.731 63.1179 246.183 63.6176 246.183H64.4387C64.879 246.183 65.2359 246.54 65.2359 246.98V247.778C65.2359 248.158 65.4977 248.515 65.8785 248.599C66.3902 248.694 66.8424 248.313 66.8424 247.813V246.992C66.8424 246.552 67.1993 246.195 67.6396 246.195H68.4607C68.9485 246.195 69.3412 245.743 69.246 245.231C69.1746 244.85 68.8176 244.589 68.425 244.589H68.4488Z" fill="#F99C7B"/>
<path d="M321.027 194.908C321.027 196.419 319.802 197.633 318.302 197.633C316.803 197.633 315.578 196.407 315.578 194.908C315.578 193.409 316.803 192.183 318.302 192.183C319.802 192.183 321.027 193.409 321.027 194.908Z" stroke="#FCC9B7" stroke-width="1.45645" stroke-miterlimit="10"/>
<path d="M341.651 317.369C342.781 317.369 343.698 316.452 343.698 315.322C343.698 314.192 342.781 313.275 341.651 313.275C340.521 313.275 339.604 314.192 339.604 315.322C339.604 316.452 340.521 317.369 341.651 317.369Z" fill="#F8916D"/>
<line x1="146.999" y1="316.355" x2="327.679" y2="316.355" stroke="#5E5E5E" stroke-width="1.17632"/>
<path d="M220.385 77.8572C220.386 77.8572 220.386 77.8568 220.386 77.8565L182.626 47.9007C182.622 47.8979 182.619 47.8946 182.616 47.8911C178.587 43.2095 171.527 42.6764 166.84 46.7009C162.152 50.727 161.617 57.7925 165.643 62.481L183.092 81.211C200.242 101.057 208.977 106.084 216.52 99.5949C227.169 90.4332 224.28 82.3913 220.385 77.8579C220.385 77.8576 220.385 77.8572 220.385 77.8572Z" fill="url(#paint0_linear_1971_99935)"/>
<path d="M181.076 164.106C181.077 164.106 181.077 164.106 181.077 164.106C181.072 164.124 171.227 198.031 181.077 219.658C186.247 231.008 189.608 229.162 191.856 233.675C197.384 244.773 192.31 264.133 195.059 273.158C198.781 285.375 206.002 285.104 206.076 285.101C206.078 285.101 206.078 285.101 206.08 285.101L302.046 271.585C302.091 271.579 302.121 271.54 302.108 271.497C301.824 270.553 298.993 260.764 296.562 238.272C295.625 229.608 292.629 219.242 298.983 206.871C307.844 189.621 303.793 165.672 302.13 143.379C301.35 132.924 298.589 113.329 296.56 106.277C294.424 98.8456 296.458 71.0768 286.067 70.3766C267.703 69.1394 274.178 94.6684 271.453 107.403C268.73 120.137 181.113 164.085 181.075 164.104C181.074 164.105 181.076 164.105 181.076 164.106Z" fill="url(#paint1_linear_1971_99935)"/>
<path d="M237.84 235.189C237.555 235.189 237.277 235.055 237.1 234.807C236.944 234.59 233.284 229.38 232.123 221.191C231.44 216.383 231.769 211.545 233.099 206.815C234.756 200.923 237.981 195.19 242.681 189.772C243.009 189.394 243.584 189.352 243.962 189.68C244.34 190.009 244.382 190.581 244.054 190.961C239.53 196.175 236.433 201.675 234.848 207.306C233.585 211.794 233.272 216.379 233.921 220.936C235.023 228.692 238.544 233.705 238.58 233.754C238.87 234.162 238.776 234.729 238.367 235.021C238.208 235.135 238.023 235.191 237.84 235.191V235.189Z" fill="#F47C53"/>
<path d="M269.591 214.526L195.528 217.019C190.177 217.019 185.381 212.435 185.381 205.744L188.61 37.8796C188.61 31.1859 192.964 25.7388 198.315 25.7388H269.589C274.939 25.7388 282.568 29.4191 282.568 39.4672L279.292 202.385C279.292 209.079 274.939 214.523 269.589 214.523L269.591 214.526Z" fill="#D85D31"/>
<path d="M269.619 28.8083H198.287C194.303 28.8083 191.072 32.7375 191.072 37.5824L189.004 198.034C188.932 209.015 193.654 208.595 197.639 208.595L269.521 206.111C273.507 206.111 276.835 200.391 276.835 195.543L279.745 38.6176C279.745 33.7702 273.605 28.8083 269.619 28.8083Z" fill="url(#paint2_linear_1971_99935)"/>
<path d="M163.249 137.073C163.249 137.072 163.25 137.072 163.251 137.073L182.558 148.094C182.562 148.097 182.566 148.1 182.57 148.103C187.227 152.157 194.292 151.675 198.353 147.02C202.414 142.363 201.933 135.296 197.274 131.232L185.204 120.703C176.893 113.659 169.177 110.055 162.641 117.558C153.414 128.152 158.743 133.145 163.247 137.073C163.247 137.074 163.248 137.073 163.249 137.073Z" fill="url(#paint3_linear_1971_99935)"/>
<path d="M316.426 315.981H173.854C176.092 293.999 180.339 249.649 187.898 249.649C200.01 249.649 226.336 260.209 254.588 251.061C282.841 241.913 302.4 242.263 304.123 249.754C305.519 255.829 314.723 298.359 316.426 315.981Z" fill="url(#paint4_linear_1971_99935)"/>
<path d="M191.397 146.041C191.21 146.041 191.031 146.014 190.858 145.956C190.486 145.842 184.55 144.012 181.968 141.671C180.904 140.706 180.997 138.954 182.229 136.74C183.13 135.121 184.566 133.38 186.072 132.087C187.307 131.025 189.073 129.844 190.476 130.245C192.047 130.695 193.909 131.791 195.335 133.106C197.08 134.717 197.923 136.426 197.708 137.918C197.35 140.396 194.82 144.339 192.785 145.588C192.292 145.89 191.826 146.043 191.395 146.043L191.397 146.041ZM189.865 131.574C188.476 131.574 185.2 134.307 183.466 137.426C182.622 138.94 182.414 140.167 182.919 140.625C185.294 142.779 191.218 144.589 191.277 144.607L191.299 144.615C191.448 144.667 191.729 144.579 192.047 144.384C193.74 143.346 196.009 139.795 196.31 137.717C196.636 135.459 192.719 132.356 190.088 131.604C190.02 131.584 189.944 131.576 189.863 131.576L189.865 131.574Z" fill="#F47C53"/>
<path d="M167.688 109.853L185.218 123.528C185.222 123.531 185.226 123.534 185.229 123.538C189.258 128.219 196.318 128.752 201.004 124.728C205.693 120.702 206.228 113.636 202.202 108.948L191.765 96.7979C184.55 88.6363 177.429 83.9638 169.886 90.4524C159.236 99.6146 163.795 105.319 167.69 109.855L167.688 109.853Z" fill="url(#paint5_linear_1971_99935)"/>
<path d="M194.536 122.77C194.245 122.77 193.979 122.71 193.736 122.589C193.384 122.424 187.77 119.762 185.552 117.075C184.637 115.967 184.98 114.246 186.517 112.231C187.641 110.757 189.312 109.241 190.987 108.177C192.361 107.304 194.279 106.389 195.61 106.986C197.102 107.656 198.786 109.007 200.008 110.514C201.504 112.358 202.092 114.17 201.667 115.617C200.957 118.02 197.887 121.558 195.697 122.501C195.277 122.682 194.89 122.772 194.536 122.772V122.77ZM194.631 108.199C193.141 108.199 189.716 110.365 187.641 113.084C186.591 114.463 186.207 115.646 186.642 116.174C188.681 118.644 194.287 121.286 194.345 121.312L194.364 121.322C194.506 121.393 194.794 121.347 195.138 121.2C196.962 120.414 199.717 117.226 200.312 115.213C200.959 113.025 197.527 109.394 195.031 108.273C194.921 108.223 194.786 108.199 194.631 108.199Z" fill="#F47C53"/>
<path d="M169.533 165.496C169.533 165.496 169.534 165.496 169.534 165.496L187.075 171.962C187.08 171.964 187.084 171.966 187.088 171.969C191.513 174.687 197.306 173.307 200.03 168.884C202.755 164.458 201.374 158.661 196.948 155.936L185.477 148.875C177.608 144.184 170.707 142.263 166.325 149.392C160.139 159.456 165.252 162.86 169.531 165.495C169.531 165.496 169.532 165.496 169.533 165.496Z" fill="url(#paint6_linear_1971_99935)"/>
<path d="M193.881 169.169C193.803 169.169 193.726 169.163 193.648 169.151C193.308 169.108 188.118 168.408 185.636 166.812C185.019 166.416 184.132 165.334 185.125 162.553C186.141 159.697 189.008 155.703 191.184 155.949C193.994 156.268 198.283 158.613 198.345 161.422C198.392 163.554 196.819 167.218 195.285 168.553C194.812 168.964 194.342 169.171 193.881 169.171V169.169ZM190.965 157.35C189.917 157.35 187.458 160.208 186.455 163.027C185.992 164.328 185.97 165.348 186.402 165.625C188.649 167.071 193.789 167.745 193.841 167.753L193.865 167.757C193.925 167.767 194.094 167.721 194.362 167.487C195.578 166.428 196.974 163.158 196.936 161.453C196.895 159.59 193.278 157.61 191.029 157.354C191.009 157.352 190.989 157.35 190.969 157.35H190.965Z" fill="#F47C53"/>
<path d="M192.908 128.149C185.262 128.149 172.129 114.352 171.558 113.749C171.29 113.467 171.304 113.019 171.586 112.751C171.869 112.482 172.316 112.494 172.585 112.778C172.621 112.816 176.132 116.518 180.478 120.079C186.119 124.702 190.571 126.995 193.356 126.713C193.746 126.673 194.09 126.955 194.13 127.343C194.169 127.731 193.887 128.077 193.499 128.117C193.306 128.137 193.109 128.147 192.908 128.147V128.149Z" fill="#F47C53"/>
<path d="M188.88 151.601C184.211 151.601 176.488 145.514 176.145 145.242C175.839 144.999 175.789 144.556 176.03 144.249C176.273 143.943 176.716 143.893 177.023 144.136C177.045 144.154 179.181 145.843 181.803 147.426C185.17 149.459 187.79 150.402 189.375 150.153C189.761 150.091 190.121 150.356 190.183 150.742C190.243 151.128 189.98 151.488 189.594 151.55C189.365 151.585 189.127 151.603 188.88 151.603V151.601Z" fill="#F47C53"/>
<path d="M290.552 92.876C289.516 92.876 288.056 92.6234 286.566 91.5274C284.901 90.304 285.088 85.9537 285.371 82.787C285.683 79.3039 286.308 75.9979 286.314 75.9661C286.387 75.5822 286.755 75.3316 287.139 75.4052C287.523 75.4788 287.774 75.8468 287.702 76.2307C287.696 76.2625 287.083 79.5088 286.777 82.9242C286.23 89.023 287.117 90.1807 287.402 90.3896C289.518 91.9451 291.511 91.3642 291.595 91.3404C291.967 91.227 292.361 91.4339 292.476 91.8058C292.591 92.1758 292.388 92.5697 292.018 92.687C291.969 92.703 291.404 92.876 290.55 92.876H290.552Z" fill="#F47C53"/>
<path d="M200.586 236.308C200.533 236.308 200.479 236.304 200.425 236.295C192.502 234.866 187.997 231.439 185.614 228.813C182.988 225.921 182.278 223.357 182.248 223.25C182.119 222.764 182.405 222.267 182.889 222.138C183.372 222.008 183.869 222.293 184.001 222.776C184.007 222.8 184.661 225.099 187.032 227.675C189.226 230.06 193.386 233.179 200.746 234.506C201.239 234.596 201.567 235.067 201.478 235.561C201.398 236 201.016 236.308 200.584 236.308H200.586Z" fill="#F47C53"/>
<path d="M191.48 174.165C190.941 174.165 190.366 174.133 189.757 174.057C185.023 173.481 168.523 165.572 167.823 165.235C167.471 165.066 167.323 164.645 167.492 164.293C167.662 163.941 168.083 163.793 168.435 163.962C168.604 164.044 185.425 172.108 189.928 172.657C194.213 173.18 196.574 171.372 196.598 171.354C196.904 171.113 197.348 171.165 197.589 171.47C197.829 171.774 197.781 172.215 197.477 172.458C197.38 172.538 195.295 174.165 191.48 174.165Z" fill="#F47C53"/>
<path d="M194.607 276.071C194.607 273.849 196.666 271.482 198.872 271.217C201.75 270.871 203.934 272.81 203.934 275.03C203.934 277.63 201.647 280.093 198.959 280.093C196.737 280.093 194.609 278.292 194.609 276.071H194.607Z" fill="#E9E9E9"/>
<path fill-rule="evenodd" clip-rule="evenodd" d="M236.239 118.022C236.239 118.021 236.239 118.021 236.239 118.021L238.568 115.571C239.133 114.971 240.021 114.802 240.766 115.155C240.767 115.156 240.768 115.155 240.769 115.154C240.769 115.154 240.77 115.153 240.771 115.154L246.3 117.733C246.336 117.749 246.369 117.767 246.403 117.788C247.078 118.15 247.47 118.881 247.399 119.643C247.339 120.329 247.201 121.006 246.99 121.661C246.774 122.325 246.488 122.964 246.137 123.567C246.083 123.66 246.015 123.743 245.935 123.813C242.214 127.338 236.785 126.569 231.728 123.621C229.557 122.337 227.558 120.78 225.781 118.99C223.991 117.212 222.435 115.214 221.15 113.043C218.195 107.972 217.429 102.526 220.988 98.804C221.053 98.736 221.126 98.6776 221.208 98.6307C221.81 98.2794 222.448 97.9941 223.112 97.7787C223.767 97.5672 224.444 97.4303 225.129 97.37C225.934 97.2962 226.697 97.7357 227.038 98.468L229.618 103.999C229.634 104.034 229.649 104.07 229.66 104.107C229.953 104.833 229.77 105.665 229.199 106.201L226.781 108.5C226.762 108.519 226.754 108.547 226.762 108.574C227.238 110.151 228.797 112.258 230.655 114.117C232.528 115.992 234.657 117.561 236.238 118.023C236.238 118.023 236.239 118.022 236.239 118.022ZM218.193 134.705C218.193 134.704 218.192 134.704 218.192 134.703L217.715 131.062C217.706 130.996 217.782 130.954 217.834 130.995C228.394 139.328 243.718 137.591 252.142 127.073C258.586 119.028 259.307 107.81 253.948 99.005C253.67 98.5417 253.069 98.3924 252.606 98.67C252.142 98.9476 251.993 99.5488 252.271 100.012C252.274 100.016 252.276 100.02 252.278 100.025C258.755 110.663 255.383 124.538 244.745 131.017C236.559 136.002 226.123 135.264 218.72 129.195C218.671 129.154 218.694 129.074 218.757 129.066L222.945 128.517C223.48 128.447 223.857 127.957 223.787 127.422C223.718 126.887 223.227 126.51 222.692 126.579L216.254 127.424C215.719 127.494 215.342 127.984 215.412 128.519L216.256 134.958C216.326 135.493 216.816 135.87 217.351 135.8C217.886 135.73 218.263 135.241 218.193 134.706C218.193 134.705 218.193 134.705 218.193 134.705ZM247.836 88.8059L248.314 92.4475C248.322 92.513 248.246 92.5552 248.194 92.5143C237.633 84.1814 222.31 85.9185 213.887 96.4366C207.444 104.482 206.722 115.699 212.081 124.504C212.359 124.967 212.96 125.117 213.423 124.839C213.887 124.561 214.036 123.96 213.759 123.497C213.756 123.493 213.754 123.489 213.751 123.485C207.273 112.847 210.647 98.9715 221.284 92.4944C229.469 87.5092 239.905 88.2466 247.308 94.3152C247.357 94.3558 247.335 94.4359 247.271 94.4442L243.084 94.993C242.549 95.0628 242.172 95.553 242.242 96.0881C242.312 96.6233 242.802 97.0004 243.337 96.9306L249.775 96.0862C250.31 96.0163 250.687 95.5262 250.618 94.991L249.773 88.5522C249.7 88.018 249.208 87.6437 248.673 87.7164C248.143 87.7892 247.77 88.2736 247.836 88.8049V88.8059Z" fill="url(#paint7_linear_1971_99935)"/>
<ellipse cx="233.495" cy="38.2307" rx="3.84425" ry="3.84426" fill="#FDDACE"/>
<path d="M380.631 56.1416H379.833C379.393 56.1416 379.036 55.7847 379.036 55.3444V54.5471C379.036 54.1664 378.774 53.8094 378.394 53.7261C377.882 53.6309 377.43 54.0117 377.43 54.5114V55.3325C377.43 55.7728 377.073 56.1297 376.632 56.1297H375.835C375.454 56.1297 375.097 56.3915 375.014 56.7723C374.919 57.284 375.3 57.7362 375.8 57.7362H376.621C377.061 57.7362 377.418 58.0931 377.418 58.5334V59.3307C377.418 59.7114 377.68 60.0684 378.06 60.1517C378.572 60.2469 379.024 59.8661 379.024 59.3664V58.5453C379.024 58.105 379.381 57.7481 379.821 57.7481H380.643C381.13 57.7481 381.523 57.2959 381.428 56.7842C381.357 56.4034 381 56.1416 380.607 56.1416H380.631Z" fill="#F99C7B"/>
<path d="M322.583 25.904H322.904C323.773 25.904 324.486 25.19 324.486 24.3214C324.486 23.4527 323.773 22.7388 322.904 22.7388H322.583C321.714 22.7388 321 23.4527 321 24.3214C321 25.19 321.714 25.904 322.583 25.904Z" fill="#FDDACE"/>
<path d="M330.081 25.904H331.866C332.734 25.904 333.448 25.19 333.448 24.3214C333.448 23.4527 332.734 22.7388 331.866 22.7388H330.081C329.212 22.7388 328.486 23.4527 328.486 24.3214C328.486 25.19 329.2 25.904 330.081 25.904Z" fill="#FDDACE"/>
<path d="M155.583 6.90399H155.904C156.773 6.90399 157.486 6.19003 157.486 5.32138C157.486 4.45273 156.773 3.73877 155.904 3.73877H155.583C154.714 3.73877 154 4.45273 154 5.32138C154 6.19003 154.714 6.90399 155.583 6.90399Z" fill="#FDDACE"/>
<path d="M163.081 6.90399H164.866C165.734 6.90399 166.448 6.19003 166.448 5.32138C166.448 4.45273 165.734 3.73877 164.866 3.73877H163.081C162.212 3.73877 161.486 4.45273 161.486 5.32138C161.486 6.19003 162.2 6.90399 163.081 6.90399Z" fill="#FDDACE"/>
<path d="M172.043 6.90399H217.082C217.951 6.90399 218.676 6.19003 218.676 5.32138C218.676 4.45273 217.962 3.73877 217.082 3.73877H172.043C171.174 3.73877 170.448 4.45273 170.448 5.32138C170.448 6.19003 171.162 6.90399 172.043 6.90399Z" fill="#FDDACE"/>
<path d="M303.137 18.8179H302.125C301.566 18.8179 301.114 18.3657 301.114 17.8064V16.795C301.114 16.3071 300.781 15.8549 300.305 15.7597C299.662 15.6288 299.079 16.1286 299.079 16.7593V17.8064C299.079 18.3657 298.627 18.8179 298.068 18.8179H297.056C296.568 18.8179 296.116 19.151 296.021 19.627C295.89 20.2696 296.39 20.8526 297.021 20.8526H298.068C298.627 20.8526 299.079 21.3048 299.079 21.8641V22.8755C299.079 23.3634 299.412 23.8156 299.888 23.9108C300.531 24.0417 301.114 23.5419 301.114 22.9112V21.8641C301.114 21.3048 301.566 20.8526 302.125 20.8526H303.172C303.803 20.8526 304.291 20.2815 304.172 19.627C304.077 19.151 303.625 18.8179 303.137 18.8179Z" fill="#F8916D"/>
<path d="M98.1368 16.8179H97.1253C96.566 16.8179 96.1139 16.3657 96.1139 15.8064V14.795C96.1139 14.3071 95.7807 13.8549 95.3047 13.7597C94.6622 13.6288 94.0791 14.1286 94.0791 14.7593V15.8064C94.0791 16.3657 93.6269 16.8179 93.0677 16.8179H92.0562C91.5683 16.8179 91.1162 17.151 91.021 17.627C90.8901 18.2696 91.3898 18.8526 92.0205 18.8526H93.0677C93.6269 18.8526 94.0791 19.3048 94.0791 19.8641V20.8755C94.0791 21.3634 94.4123 21.8156 94.8882 21.9108C95.5308 22.0417 96.1139 21.5419 96.1139 20.9112V19.8641C96.1139 19.3048 96.566 18.8526 97.1253 18.8526H98.1725C98.8031 18.8526 99.291 18.2815 99.172 17.627C99.0768 17.151 98.6246 16.8179 98.1368 16.8179Z" fill="#F8916D"/>
<defs>
<linearGradient id="paint0_linear_1971_99935" x1="208.075" y1="114.166" x2="172.154" y2="117.95" gradientUnits="userSpaceOnUse">
<stop stop-color="#F8916C"/>
<stop offset="1" stop-color="#FDDACE"/>
</linearGradient>
<linearGradient id="paint1_linear_1971_99935" x1="271.31" y1="328.961" x2="195.448" y2="333.505" gradientUnits="userSpaceOnUse">
<stop stop-color="#F8916C"/>
<stop offset="1" stop-color="#FDDACE"/>
</linearGradient>
<linearGradient id="paint2_linear_1971_99935" x1="234.374" y1="28.8083" x2="234.374" y2="208.597" gradientUnits="userSpaceOnUse">
<stop stop-color="white"/>
<stop offset="1" stop-color="#FEDBCF"/>
</linearGradient>
<linearGradient id="paint3_linear_1971_99935" x1="189.8" y1="158.504" x2="164.215" y2="161.497" gradientUnits="userSpaceOnUse">
<stop stop-color="#F8916C"/>
<stop offset="1" stop-color="#FDDACE"/>
</linearGradient>
<linearGradient id="paint4_linear_1971_99935" x1="245.14" y1="244.163" x2="245.14" y2="315.981" gradientUnits="userSpaceOnUse">
<stop stop-color="#8D8D8D"/>
<stop offset="1" stop-color="#5B5B5B"/>
</linearGradient>
<linearGradient id="paint5_linear_1971_99935" x1="194.096" y1="135.604" x2="169.581" y2="138.169" gradientUnits="userSpaceOnUse">
<stop stop-color="#F8916C"/>
<stop offset="1" stop-color="#FDDACE"/>
</linearGradient>
<linearGradient id="paint6_linear_1971_99935" x1="191.564" y1="179.218" x2="169.34" y2="182.18" gradientUnits="userSpaceOnUse">
<stop stop-color="#F8916C"/>
<stop offset="1" stop-color="#FDDACE"/>
</linearGradient>
<linearGradient id="paint7_linear_1971_99935" x1="268.025" y1="126.262" x2="250.108" y2="139.879" gradientUnits="userSpaceOnUse">
<stop stop-color="#FDDACE"/>
<stop offset="1" stop-color="#F8916C"/>
</linearGradient>
</defs>
</svg>
